<?xml version="1.0" encoding="utf-8"?>
<!-- Generator: Adobe Illustrator 18.1.1, SVG Export Plug-In . SVG Version: 6.00 Build 0)  -->
<svg version="1.1" id="Layer_1" xmlns="http://www.w3.org/2000/svg" xmlns:xlink="http://www.w3.org/1999/xlink" x="0px" y="0px"
	 viewBox="0 0 1000 792" enable-background="new 0 0 1000 792" xml:space="preserve">
<path fill="#4DAACE" d="M577.681,510.983c-183.517,0-183.517,0-183.517,136.102h10.803c0-126.424,0-126.424,183.517-126.424
	l-8.203-9.788"/>
<g>
	<path fill-rule="evenodd" clip-rule="evenodd" fill="#FEF3FE" d="M587.687,652.229c0.475,1.704,3.042,3.383,0.815,5.119
		c-2.087,1.631-4.116,0.658-5.644-1.063C582.943,653.647,584.559,652.301,587.687,652.229z"/>
	<polygon fill-rule="evenodd" clip-rule="evenodd" fill="#D48A23" points="626.252,489.362 638.841,489.362 638.841,465.648 
		633.292,445.889 628.857,438.253 623.766,436.001 614.743,439.962 	"/>
	<path fill-rule="evenodd" clip-rule="evenodd" fill="#D48A23" d="M558.931,483.048c-2.435-0.024-4.871-0.05-7.308-0.072
		c-0.071-3.319-0.142-6.641-0.214-9.961c4.832-19.607,13.261-37.517,23.789-54.439c5.959,4.846,5.425,14.854,13.387,18.091
		c2.798,2.184,5.864,3.508,9.453,3.281c6.525,0.263,13.041-0.34,19.563,0.173c2.971,0.357,5.729,1.158,7.683,3.749
		c2.883,13.203,4.145,26.363-0.93,39.362l-0.84,0.251c-4.656-0.124-9.313-0.246-13.97-0.372c-0.022-0.721-0.035-1.441-0.037-2.164
		c-13.379-2.728-26.717-1.94-40.026,0.531C566.101,482.972,562.265,481.184,558.931,483.048z"/>
	<path fill-rule="evenodd" clip-rule="evenodd" fill="#D8942E" d="M602.272,486.345c-0.778-0.242-1.557-0.489-2.335-0.737
		c-7.185-1.988-14.503-0.494-21.756-0.883c-1.51-0.14-2.479-0.964-2.912-2.472c9.652-8.925,20.849-3.723,31.481-3.744
		c1.322,0.517,2.417,1.359,3.293,2.511c0.557,2.655-0.89,3.938-3.03,4.739C605.432,485.956,603.852,486.152,602.272,486.345z"/>
	<polygon fill-rule="evenodd" clip-rule="evenodd" fill="#D48A23" points="546.373,482.546 546.373,490.44 626.215,491.187 
		626.999,453.285 625.283,443.87 619.082,440.109 	"/>
	<polygon fill-rule="evenodd" clip-rule="evenodd" fill="#2E6A7C" points="253.232,486.921 212.804,671.551 975.526,671.551 
		913.537,491.243 	"/>
	<path fill-rule="evenodd" clip-rule="evenodd" fill="#E7A609" d="M606.804,109.604c3.574-33.11,17.229-49.385,52.796-47.251
		c27.124,1.627,47.086,25,46.565,54.741c-0.271,1.925-1.266,3.3-2.928,4.177c-1.741,0.574-3.447,0.462-5.121-0.299
		c-1.53-0.909-2.788-2.143-3.893-3.55c-11.577-7.809-24.1-7.382-36.909-4.569c-15.779,0.626-31.544,1.579-47.286-0.489
		C608.673,111.796,607.601,110.872,606.804,109.604z"/>
	<path fill-rule="evenodd" clip-rule="evenodd" fill="#DEAD94" d="M698.45,192.51c1.109,1.567,2.22,3.133,3.334,4.703
		c-0.59,2.697-2.296,5.061-2.162,7.979c-0.289,4.768,0.133,9.599-1.293,14.25c-2.121,4.329-3.996,8.738-4.051,13.735
		c-1.761,5.97-3.322,12.071-9.169,15.418c-11.489-7.076-24.412-11.949-33.272-23.128c0.146-1.994,1.165-3.379,2.795-4.337
		c13.902,0.717,20.142-10.372,27.67-19.462c2.845-2.815,4.705-6.536,7.619-9.231C692.611,189.95,695.657,187.439,698.45,192.51z"/>
	<path fill-rule="evenodd" clip-rule="evenodd" fill="#AFB28D" d="M702.558,116.924c1.067-0.941,2.135-1.879,3.204-2.822
		c5.084,18.666,13.572,37.657-4.737,54.147c-2.571-1.584-2.814-4.158-2.765-6.853c1.956-7.228,3.419-14.095-3.579-19.967
		c-2.89-2.419-2.84-7.071-3.543-10.907c-0.212-2.525,0.326-4.78,2.241-6.519C696.299,121.462,700.592,120.802,702.558,116.924z"/>
	<path fill-rule="evenodd" clip-rule="evenodd" fill="#DEBCA5" d="M701.325,160.268c0.13,2.661,0.26,5.322,0.392,7.982
		c-1.088,8.087-2.177,16.175-3.267,24.26c-9.424-3.575-7.995,8.84-14.023,10.263C680.105,187.295,688.183,166.979,701.325,160.268z"
		/>
	<path fill-rule="evenodd" clip-rule="evenodd" fill="#DEA614" d="M766.063,252.947c2.219,5.84,8.329,9.758,7.775,16.97
		c1.05,3.566-1.285,3.948-3.697,4.261c-6.42-2.72-9.588-9.301-14.823-13.435c-1.622-1.456-3.188-2.973-4.076-5.066
		c-0.256-1.742,0.446-3.068,1.679-4.159c2.014-1.364,3.925-2.942,6.247-3.783C762.845,247.5,763.075,252.188,766.063,252.947z"/>
	<path fill-rule="evenodd" clip-rule="evenodd" fill="#ECA70D" d="M730.138,220.638c7.754,7.794,18.677,11.791,24.446,21.967
		c-1.111,2.303-3.08,3.286-5.376,3.769c-9.701-3.128-14.978-11.315-20.448-19.299c-0.318-1.14-0.429-2.3-0.334-3.482
		C728.709,222.428,729.292,221.453,730.138,220.638z"/>
	<path fill-rule="evenodd" clip-rule="evenodd" fill="#CFA21B" d="M708.429,203.076c6.983-0.226,10.754,4.751,14.546,9.692
		c-0.041,2.51-0.66,4.713-2.958,6.03c-8.078,0.151-10.52-5.832-12.477-12.357C707.446,205.209,707.748,204.089,708.429,203.076z"/>
	<path fill-rule="evenodd" clip-rule="evenodd" fill="#DDA525" d="M708.429,203.076c-0.037,0.667-0.049,1.335-0.029,2.003
		c-5.635,8.53-8.327,2.205-11.356-2.423c-0.627-3.885,1.772-4.932,4.737-5.443C705.874,196.872,706.78,200.43,708.429,203.076z"/>
	<path fill-rule="evenodd" clip-rule="evenodd" fill="#EAA908" d="M749.327,245.705c1.046-2.328,3.097-2.81,5.257-3.1
		c3.07,0.224,4.413,2.112,4.583,5.13c-0.227,3.376-1.895,5.136-5.224,5.031C751.142,251.302,748.409,249.789,749.327,245.705z"/>
	<path fill-rule="evenodd" clip-rule="evenodd" fill="#E9A508" d="M720.489,217.775c0.018-2.102,0.553-3.93,2.485-5.008
		c4.336,0.715,4.084,5.929,7.163,7.872c-0.053,0.839-0.106,1.68-0.163,2.521C724.683,225.414,719.542,227.377,720.489,217.775z"/>
	<path fill-rule="evenodd" clip-rule="evenodd" fill="#E1A610" d="M829.161,448.305c0.899,5.44-1.399,10.183-3.045,15.065
		c-5.174,2.31-5.872-1.834-7.082-5.269c-0.669-6.508-0.693-13.01,0.35-19.487c3.469-9.426-0.418-19.77,3.313-29.163
		c0.738-1.317,1.852-1.939,3.319-1.872c4.739,3.49,2.361,8.828,3.196,13.334c-0.004,5.827-0.006,11.654-0.008,17.483
		c0,0-0.099,1.237-0.096,1.237c-0.071,1.239-0.085,2.477-0.093,3.72c0.018,1.237,0.026,2.477,0.08,3.716
		C829.102,447.069,829.161,448.305,829.161,448.305z"/>
	<path fill-rule="evenodd" clip-rule="evenodd" fill="#DCAC23" d="M819.511,485.603c-6.797,1.728-5.123,11.542-11.82,13.368
		c-2.398-0.153-5.531,1.635-6.389-2.612c3.303-7.48,6.49-15.04,13.631-19.654c1.888-0.174,3.56,0.278,4.852,1.817
		c0.038,1.636,0.075,3.272,0.112,4.906c0.592,0.613,0.731,1.138,0.421,1.58C820.039,485.404,819.771,485.603,819.511,485.603z"/>
	<path fill-rule="evenodd" clip-rule="evenodd" fill="#E7A60A" d="M826.443,408.226c-0.725,0.017-1.453,0.029-2.182,0.042
		c-0.588,0.249-1.183,0.499-1.775,0.748c-1.193-0.632-2.047-1.588-2.578-2.865c-1.509-4.604-1.125-9.374-1.164-14.116
		c1.086-4.236-0.373-10.846,7.517-8.792c-0.03,5.931,4.483,11.174,2.441,17.407C827.126,402.913,829.478,406.436,826.443,408.226z"
		/>
	<path fill-rule="evenodd" clip-rule="evenodd" fill="#D4A824" d="M812.612,335.755c-1.607,5.108,5.025,7.471,3.841,12.438
		c-1.864,1.981-2.192,5.68-5.861,5.65c-7.087-3.656-7.119-10.368-6.904-17.192c1.258-2.682,3.366-3.112,5.902-2.414
		C810.795,334.31,811.8,334.82,812.612,335.755z"/>
	<path fill-rule="evenodd" clip-rule="evenodd" fill="#E2A918" d="M821.767,458.232c0.118,2.929,1.254,4.927,4.35,5.138
		c0.116,3.978-1.195,7.39-3.813,10.273c-1.789,1.27-3.646,1.385-5.574,0.354c-3.683-5.499-2.164-10.477,1.4-15.255
		C819.227,457.707,820.441,457.539,821.767,458.232z"/>
	<path fill-rule="evenodd" clip-rule="evenodd" fill="#DCAE29" d="M826.26,383.243c-6.286,1.046-3.734,6.392-4.553,10.096
		c-5.91-0.482-4.646-6.022-6.263-9.547c-0.31-1.86-0.172-3.674,0.584-5.417c2.049-2.606,4.528-3.879,7.794-2.667
		C825.01,378.087,827.418,380.046,826.26,383.243z"/>
	<path fill-rule="evenodd" clip-rule="evenodd" fill="#E6A70D" d="M811.999,353.319c0.171-2.939,1.359-4.928,4.453-5.127
		c0.85,4.17,1.699,8.339,2.549,12.506c-4.595,5.818-6.146,1.054-8.063-2.488C810.538,356.405,810.709,354.729,811.999,353.319z"/>
	<path fill-rule="evenodd" clip-rule="evenodd" fill="#E2AC1D" d="M812.337,358.096c2.089,1.241,3.068,5.536,6.664,2.602
		c1.218,2.358,3.779,4.228,2.517,7.482c-1.588,1.813-3.623,2.219-5.857,2.003C809.293,367.717,808.506,363.589,812.337,358.096z"/>
	<path fill-rule="evenodd" clip-rule="evenodd" fill="#E9A810" d="M816.7,368.266c1.604-0.029,3.21-0.057,4.817-0.086
		c1.232,2.355,3.621,4.328,2.305,7.524c-2.184,0.797-4.366,1.597-6.55,2.396C814.181,375.002,814.431,371.699,816.7,368.266z"/>
	<path fill-rule="evenodd" clip-rule="evenodd" fill="#B5B24B" d="M826.443,408.226c0.431-2.627-0.323-5.639,2.259-7.576
		c0.272,0.778,0.442,1.572,0.508,2.394c1.708,5.984,1.523,11.98,0.086,17.981c0,0-0.082-0.115-0.082-0.112
		C824.95,417.469,827.447,412.436,826.443,408.226z"/>
	<path fill-rule="evenodd" clip-rule="evenodd" fill="#A19E36" d="M829.295,421.025c-0.029-5.993-0.057-11.987-0.086-17.981
		C832.826,409.019,832.829,415.01,829.295,421.025z"/>
	<path fill-rule="evenodd" clip-rule="evenodd" fill="#D7AE31" d="M816.952,473.419c1.781,0.073,3.566,0.149,5.349,0.225
		c-0.424,1.857-0.185,4.087-2.519,4.879c-1.846-0.092-3.691-0.18-5.54-0.267C813.285,475.516,813.05,473.217,816.952,473.419z"/>
	<path fill-rule="evenodd" clip-rule="evenodd" fill="#939A3D" d="M829.205,438.396c2.327,0.905,2.216,2.854,1.94,4.874
		c-1.012,0.467-1.906,0.291-2.69-0.519c-0.598-1.575-0.51-3.083,0.429-4.499L829.205,438.396z"/>
	<path fill-rule="evenodd" clip-rule="evenodd" fill="#7F9C4A" d="M829.154,443.349c0.664-0.007,1.328-0.034,1.992-0.079
		c0.29,2.084,0.304,4.046-1.985,5.035l-0.262,0.204c-0.798-1.286-1.031-2.685-0.792-4.181
		C828.455,444,828.806,443.676,829.154,443.349z"/>
	<path fill-rule="evenodd" clip-rule="evenodd" fill="#F9CB80" d="M537.016,398.085c0.368-4.351-0.27-8.475-2.553-12.227
		c-0.807-1.257-0.699-2.423,0.315-3.502c5.399-3.552,12.587-1.495,17.662-6.108c5.33-1.795,10.692-1.869,16.097-0.371
		c1.355,0.523,2.497,1.357,3.453,2.479c2.527,4.929,2.564,9.854-0.015,14.775c-5.842,5.855-14.939,1.246-20.832,7.002
		c-4.94,1.615-9.702,1.969-13.812-2.148L537.016,398.085z"/>
	<path fill-rule="evenodd" clip-rule="evenodd" fill="#F9C403" d="M534.908,383.475c-0.145,0.796-0.293,1.589-0.445,2.382
		c-2.221-1.172-4.075-3.529-7.024-2.344c-13.049,3.564-26.106,3.398-39.17,0.085c-10.241-4.611-23.936-0.124-31.137-12.749
		c0.563-2.213,1.896-3.675,3.975-4.406c9.518-1.07,17.329,5.443,26.768,6.114c14.816,1.057,29.544,2.484,44.387,1.225
		C537.027,375.859,536.205,379.599,534.908,383.475z"/>
	<path fill-rule="evenodd" clip-rule="evenodd" fill="#FACA07" d="M440.479,320.154c0.156-2.37,0.311-4.737,0.466-7.103
		c5.878-2.661,6.8,2.048,8.268,5.977c-0.149,9.088-0.545,18.176-0.49,27.283c-0.982,3.914,0.353,9.424-6.071,9.617
		c-2.996-1.412-2.22-4.186-2.23-6.675C437.166,339.547,436.796,329.843,440.479,320.154z"/>
	<path fill-rule="evenodd" clip-rule="evenodd" fill="#F8CB10" d="M447.68,318.014c-2.353-1.495-3.126-5.306-6.735-4.963
		c-0.062-1.602-0.123-3.202-0.185-4.803c2.073-2.973-0.117-7.805,3.996-9.888c0.624-5.042,3.498-8.926,6.167-12.917
		c1.762-1.386,3.428-1.226,5.011,0.334c2.833,9.362-3.737,17.309-3.652,26.27C451.411,314.585,450.13,316.791,447.68,318.014z"/>
	<path fill-rule="evenodd" clip-rule="evenodd" fill="#E5C724" d="M491.587,227.558c1.539,0.074,3.078,0.147,4.616,0.221
		c-0.465,11.912-6.548,19.438-19.426,24.045c-1.19-0.256-2.129-0.908-2.817-1.951C476.559,239.642,485.575,234.879,491.587,227.558z
		"/>
	<path fill-rule="evenodd" clip-rule="evenodd" fill="#FEC611" d="M442.652,355.928c3.805-2.609,2.487-6.722,2.811-10.353
		c8.796,4.741,11.521,13.69,14.471,22.487c-0.933,0.929-1.868,1.858-2.801,2.786C447.594,370.808,445.501,362.972,442.652,355.928z"
		/>
	<path fill-rule="evenodd" clip-rule="evenodd" fill="#F9CE17" d="M454.752,285.412c-1.276,0.01-2.555,0.022-3.831,0.032
		c-0.872-5.238,3.879-8.052,4.97-12.445c5.021-2.228,5.498,1.563,6.22,5.052C461.384,282.359,460.688,286.717,454.752,285.412z"/>
	<path fill-rule="evenodd" clip-rule="evenodd" fill="#D1D351" d="M440.479,320.154c-0.02,9.695-0.042,19.39-0.061,29.093
		c-0.696-0.544-1.397-1.093-2.097-1.642c-2.95-8.009-0.285-16.409-1.578-24.532C436.944,320.656,439.328,321.258,440.479,320.154z"
		/>
	<path fill-rule="evenodd" clip-rule="evenodd" fill="#D2B713" d="M466.68,259.955c-1.227-6.204,2.444-8.591,7.278-10.079
		c0.362,0.296,0.739,0.57,1.132,0.821c2.488,5.699,0.419,9.15-5.005,10.952C468.696,261.641,467.561,261.076,466.68,259.955z"/>
	<path fill-rule="evenodd" clip-rule="evenodd" fill="#E6C51F" d="M460.009,278.126c-0.111-2.805-1.133-4.817-4.117-5.127
		c2.189-3.244,4.382-6.486,6.572-9.73c2.161,1.302,3.289,3.333,3.81,5.803C465.962,273.41,465.709,277.808,460.009,278.126z"/>
	<path fill-rule="evenodd" clip-rule="evenodd" fill="#F0D433" d="M465.18,268.044c-2.06-0.885-2.626-2.683-2.718-4.773
		c1.406-1.105,2.812-2.211,4.218-3.315c0.852,0.082,1.703,0.165,2.552,0.251C471.684,264.941,472.763,268.907,465.18,268.044z"/>
	<path fill-rule="evenodd" clip-rule="evenodd" fill="#F9F1A8" d="M465.18,268.044c4.788-0.693,4.582-4.176,4.056-7.837
		c4.684-1.354,5.426-5.327,5.853-9.511c10.546-4.154,16.939-12.432,21.112-22.917c0.001,0-0.138,0.122-0.138,0.122
		c2.324-2.893,7.395-3.061,7.498-8.158c4.842-3.333,9.683-6.667,14.522-10c3.813-2.494,8.492-3.544,11.458-7.443
		c0.829-1.932,2.436-2.082,4.161-1.953c4.548,0.79,7.694-2.185,11.097-4.488c4.302-1.337,7.788-4.589,12.222-5.632
		c2.356-0.553,4.742-0.792,7.146-0.922c13.354-0.955,15.709,0.99,14.5,15.031c-2.148,24.947-9.674,48.055-23.706,68.691
		c-6.957,10.231-14.084,20.328-21.324,30.316c-2.531,5.434-0.857,14.748-11.137,13.189c-19.181,0.759-38.339,0.359-57.492,0.29
		c-5.078-0.018-10.536,0.572-14.411-4.225c-3.42-9.855,4.771-17.792,4.158-27.184c3.318-1.21,5.398-3.382,5.252-7.289
		C462.691,275.296,464.75,272.12,465.18,268.044z"/>
	<path fill-rule="evenodd" clip-rule="evenodd" fill="#FACC06" d="M546.965,188.583c3.141-0.292,6.283-0.583,9.424-0.874
		c1.312,1.666,1.478,3.343,0.038,5.032c-3.69,2.31-6.794,6.036-11.768,5.213c-2.771,1.265-3.981-0.541-4.996-2.734
		C539.821,190.306,547.769,194.638,546.965,188.583z"/>
	<path fill-rule="evenodd" clip-rule="evenodd" fill="#F2C80B" d="M529.542,202.299c-0.122,8.618-6.337,7.129-11.458,7.446
		C519.821,203.804,523.712,201.439,529.542,202.299z"/>
	<path fill-rule="evenodd" clip-rule="evenodd" fill="#FACF16" d="M503.562,219.742c3.174,8.347-2.276,8.136-7.498,8.158
		c0.04-1.622,0.08-3.248,0.116-4.869C498.639,221.937,501.102,220.841,503.562,219.742z"/>
	<path fill-rule="evenodd" clip-rule="evenodd" fill="#F8D11E" d="M539.663,195.22c1.665,0.91,3.328,1.821,4.994,2.734
		c-2.99,4.055-6.152,7.267-10.95,2.389C535.69,198.637,537.677,196.928,539.663,195.22z"/>
	<path fill-rule="evenodd" clip-rule="evenodd" fill="#D8B859" d="M800.65,315.394c-0.235,0.699-0.354,1.418-0.36,2.161
		c-0.959,1.76-2.531,2.234-4.333,2.227c-3.973-0.496-5.262-4.171-7.481-6.768c-0.762-0.925-1.39-1.931-1.938-3.009
		c-0.466-1.151-0.771-2.338-0.957-3.571c-0.252-3.223-0.087-6.345,2.087-8.96c1.77-1.008,3.489-1.008,5.154,0.257
		c7.065,1.191,3.412,8.982,7.022,12.301C801.445,311.602,801.662,313.398,800.65,315.394z"/>
	<path fill-rule="evenodd" clip-rule="evenodd" fill="#DAA817" d="M768.994,272.913c2.13-0.099,3.9-0.828,4.844-2.996
		c4.361,3.15,10.917,4.449,9.658,12.343c1.983,4.105,0.585,6.34-3.602,7.04C772.779,286.342,768.509,281.332,768.994,272.913z"/>
	<path fill-rule="evenodd" clip-rule="evenodd" fill="#DAAB1F" d="M778.597,287.928c3.492-0.15,4.648-2.486,4.899-5.666
		c6.146,3.182,6.494,10.136,9.328,15.472c-1.634,0.171-3.264,0.348-4.894,0.521c-1.373,1.187-2.896,1.329-4.531,0.717
		c-2.766-2.002-4.372-4.893-5.687-8.009C777.538,289.808,777.835,288.795,778.597,287.928z"/>
	<path fill-rule="evenodd" clip-rule="evenodd" fill="#989999" d="M684.931,596.045c-0.957,1.121-1.913,2.243-2.871,3.364
		c-1.438,0.894-2.965,1.134-4.579,0.699c-2.381-1.751-5.251-2.555-7.722-4.161c-6.875-6.222-17.423-9.82-15.015-22.678
		c0.709-7.009-4.386-13.348-2.206-20.536c3.181-5.585,8.048-8.129,14.121-7.643c11.749,0.953,24.017-3.27,35.175,3.688
		c-0.118,7.438-0.235,14.876-0.348,22.316c1.484,12.054-4.28,19.031-14.747,22.712c-2.469-1.782-3.149-4.923-5.047-7.116
		c-0.613-0.611-1.222-1.242-1.823-1.803c-0.483-0.643-1.286-0.938-1.646-0.339c-0.292,0.484,0.221,1.317,0.682,1.922
		c1.246,2.058,2.862,3.709,4.52,5.34C684.507,593.004,685.187,594.349,684.931,596.045z"/>
	<path fill-rule="evenodd" clip-rule="evenodd" fill="#F8F9C1" d="M677.178,598.603c-0.165,3.256-1.746,5.048-4.947,5.162
		c-3.136-1.818-2.156-5.035-2.471-7.817C673.305,593.607,675.548,595.179,677.178,598.603z"/>
	<path fill-rule="evenodd" clip-rule="evenodd" fill="#FEF885" d="M607.507,112.486c0.075-0.835,0.15-1.668,0.226-2.502
		c17.474,0.007,34.952,0.011,52.427,0.016c3.149-1.276,6.436-3.036,7.711,2.344c-1.785,2.389-4.343,2.981-7.021,3.302
		c-3.704,0.281-7.43,0.081-11.137,0.258c-8.384,0.83-17.029-1.066-25.158,2.593c-2.962,0.316-5.166-1.911-7.863-2.507
		C613.449,115.33,609.957,115.372,607.507,112.486z"/>
	<path fill-rule="evenodd" clip-rule="evenodd" fill="#FEF885" d="M667.799,112.332c-2.059-2.489-5.005-1.869-7.639-2.333
		c13.177-4.828,31.931-1.245,36.482,6.973c-2.095,2.2-4.223,0.739-6.352,0.095c-3.266-1.581-6.764-1.267-10.226-1.289
		C675.738,115.527,671.124,116.377,667.799,112.332z"/>
	<path fill-rule="evenodd" clip-rule="evenodd" fill="#FEF885" d="M691.674,114.914c1.656,0.688,3.313,1.375,4.969,2.059
		c0.952,0.944,1.905,1.893,2.856,2.836c-0.73,1.097-1.699,1.875-2.896,2.352c-3.684,1.111-7.318,1.019-10.866-0.55
		c-1.009-0.643-1.807-1.517-2.389-2.575c-0.314-1.102-0.311-2.232-0.035-3.346C685.939,113.671,688.819,114.454,691.674,114.914z"/>
	<path fill-rule="evenodd" clip-rule="evenodd" fill="#FEF885" d="M696.431,120.129c1.017-0.106,2.04-0.212,3.063-0.318
		c1.225-0.017,2.447-0.032,3.665-0.045c0.523,5.218-2.034,7.495-6.793,7.67C694.31,124.981,694.45,122.549,696.431,120.129z"/>
	<path fill-rule="evenodd" clip-rule="evenodd" fill="#FDE6C8" d="M701.325,160.268c-10.882,11.916-15.085,26.699-16.899,42.505
		c-7.703,9.639-12.53,23.811-28.908,19.765c-7.602-3.746-5.491-11.156-5.858-17.441c-0.39-6.639,0.325-13.151-7.494-16.477
		c-4.661-1.983-4.401-7.483-4.547-12.02c-0.279-8.687,0.118-17.4-1.061-26.035c-0.1-1.261,0.019-2.516,0.303-3.746
		c1.045-3.233,3.966-4.045,6.476-5.392c1.402-0.815,2.839-1.58,4.362-2.146c1.063-0.196,2.107-0.094,3.125,0.282
		c1.989,1.052,3.285,2.783,4.335,4.763c0.801,1.487,1.404,3.054,1.789,4.717c0.852,7.375,4.763,10.213,11.452,7.575
		c5.709-2.251,12.506-2.888,15.672-9.683c5.21-2.737,6.629-8.166,8.658-13.163c0.406-0.371,0.816-0.729,1.228-1.091
		c3.868,3.893,2.241,11.325,9.867,13.684C706.676,147.244,703.74,155.694,701.325,160.268z"/>
	<path fill-rule="evenodd" clip-rule="evenodd" fill="#EABFA8" d="M638.41,147.521c4.596,9.533,1.431,19.752,2.459,29.597
		c0.443,4.257-2.468,10.62,6.689,9.188c5.436-0.85,4.979,5.096,5.373,9.215c0.858,9.008-2.194,18.423,2.587,27.019
		c-0.882,0.94-1.76,1.883-2.639,2.827c-5.476,3.449-8.685-1.559-12.682-3.643c-10.037-10.816-16.437-23.96-22.185-37.524
		c-0.667-1.649-1.051-3.368-1.187-5.148c-0.052-1.176,0.061-2.341,0.324-3.49c0.458-1.069,1.021-2.08,1.691-3.025
		c0.016-3.047,0.032-6.092,0.049-9.136c-1.028-6.719-5.73-14.319,4.095-18.446C628.399,144.018,633.767,143.448,638.41,147.521z"/>
	<path fill-rule="evenodd" clip-rule="evenodd" fill="#BDA248" d="M720.489,217.775c0.824,6.247,5.78,4.626,9.488,5.38
		c-0.137,0.788-0.304,1.564-0.495,2.335c-11.407,13.795-24.237,26.077-37.448,37.94c-4.483,4.026-8.965,8.256-15.278,9.066
		c-1.86,0.044-3.557-0.428-5.003-1.699c-1.207-10.863,5.312-17.155,12.617-22.979c2.427-4.995,4.852-9.99,7.276-14.985
		c2.183-3.974,1.953-8.891,4.609-12.674c0.259-5.836,0.518-11.667,0.782-17.503c3.889,0.318,6.414,7.485,11.361,2.426
		C712.001,209.75,713.453,216.632,720.489,217.775z"/>
	<path fill-rule="evenodd" clip-rule="evenodd" fill="#FDDCBD" d="M684.37,247.819c-4.181,7.522-8.361,15.046-12.541,22.568
		c-0.273,2.474-1.918,3.975-3.577,5.48c-4.996,3.73-9.184,4.291-11.296-3.163c0.4-13.591-7.291-24.4-11.578-36.385
		c-1.882-5.259-6.76-9.672-4.397-16.183c3.966,1.743,7.932,3.486,11.898,5.23C662.658,233.939,676.444,236.446,684.37,247.819z"/>
	<path fill-rule="evenodd" clip-rule="evenodd" fill="#C7A563" d="M696.256,220.159c0.395,4.98-0.893,9.304-4.609,12.674
		C691.454,227.927,691.025,222.932,696.256,220.159z"/>
	<path fill-rule="evenodd" clip-rule="evenodd" fill="#FEF885" d="M696.431,120.129c-0.026,2.435-0.043,4.874-0.066,7.31
		c-1.976,1.162-2.324,3.135-2.405,5.24c-0.002,0,0.081-0.162,0.081-0.162c-0.892,0.88-1.9,1.586-3.021,2.125
		c-3.098,0.905-6.064,0.742-8.822-1.155c-2.676-4.389-0.82-8.428,0.899-12.481c0.459-0.406,0.925-0.805,1.389-1.206
		C688.465,119.909,692.448,120.02,696.431,120.129z"/>
	<path fill-rule="evenodd" clip-rule="evenodd" fill="#BFC09E" d="M611.642,147.818c-1.413-0.17-2.825-0.336-4.237-0.506
		c-1.528-4.655-3.057-9.311-4.585-13.968c0.387-4.295,0.288-8.795,4.439-11.535c1.278-0.292,2.367,0.059,3.279,1.035
		c2.706,5.586,6.599,10.711,6.329,17.474C616.384,143.764,615.227,146.709,611.642,147.818z"/>
	<path fill-rule="evenodd" clip-rule="evenodd" fill="#FEF885" d="M609.497,122.715l-1.111-0.118l-1.11,0.121
		c-0.76-0.421-1.057-0.907-0.891-1.452c0.173-0.58,0.371-0.871,0.596-0.871c0.256-0.911,0.512-1.82,0.769-2.732
		c3.357-2.785,8.059-2.215,11.437-4.946c1.575,1.635,3.146,3.273,4.721,4.907c0.762,1.114,0.86,2.289,0.299,3.53
		c-1.011,1.688-2.444,2.814-4.243,3.465C616.188,125.705,612.633,125.431,609.497,122.715z"/>
	<path fill-rule="evenodd" clip-rule="evenodd" fill="#FEF885" d="M619.188,112.716c-2.717,4.393-5.968,7.451-11.44,4.944
		c-0.078-1.723-0.161-3.448-0.241-5.175C611.401,112.562,615.294,112.64,619.188,112.716z"/>
	<path fill-rule="evenodd" clip-rule="evenodd" fill="#BFC09E" d="M610.595,115.536c0.117,1.07,0.281,2.135,0.497,3.195
		c-2.507,4.87-5.011,9.739-7.513,14.611C600.108,125.764,600.924,119.4,610.595,115.536z"/>
	<path fill-rule="evenodd" clip-rule="evenodd" fill="#FECB7F" d="M657.799,272.917c3.161,4.917,6.462,3.557,9.808,0.24
		c3.584,0.68,6.376-1.547,9.444-2.766c16.961-10.446,30.576-24.91,43.896-39.681c2.459-2.724,4.074-6.307,8.538-5.221
		c6.612,6.735,13.227,13.475,19.842,20.213c1.541,2.357,3.079,4.711,4.62,7.066c-0.761,0.781-1.515,1.566-2.269,2.349
		c-10.016,6.834-21.838,9.416-32.444,15.092c-15.259,8.167-29.752,17.518-44.269,26.907c-1.445,0.906-2.955,1.679-4.499,2.372
		c-4.802,1.211-8.454,4.892-13.03,6.613c-3.035,0.269-5.095-1.804-7.395-3.299c-5.539-3.29-12.049-0.458-17.701-2.999
		c-1.018-0.51-1.899-1.21-2.668-2.064c-1.398-1.728-2.615-3.628-4.351-5.04c-5.818-2.819-11.932-1.134-17.913-1.302
		c-6.176,0.507-8.246,4.852-9.762,10.355c-1.792,6.514-2.917,13.544-8.69,18.094c-18.926-0.645-37.462-3.669-55.458-9.847
		c-3.04-1.042-6.243-2.545-3.598-7c12.372-17.8,25.834-34.747,35.077-54.829c6.361-13.824,7.64-28.645,10.587-43.157
		c1.983-9.768-0.605-15.953-11.962-12.595c-0.708-3.036,0.978-4.751,3.153-6.203c2.824-1.171,5.814-1.104,8.772-1.233
		c5.071-0.174,10.177-0.212,14.512-3.628c2.293-0.943,4.558-1.01,6.779,0.232c2.158,1.762,1.752,4.289,1.872,6.662
		c8.447,33.002,26.636,58.887,53.227,78.643C654.179,268.572,656.621,270.086,657.799,272.917z"/>
	<path fill-rule="evenodd" clip-rule="evenodd" fill="#D38A21" d="M672.295,295.525c20.057-14.941,41.714-26.906,64.399-36.837
		c4.65-2.037,9.975-2.419,14.984-3.567c1.723,0.948,3.445,1.9,5.167,2.85c0.7,10.909-4.589,20.092-7.947,29.844
		c-1.037,1.591-2.38,2.82-4.049,3.644c-1.133,0.358-2.303,0.478-3.484,0.429c-7.736-0.817-15.483-1.699-23.17,0.441
		c-3.431,1.332-5.025,5.773-9.168,5.917c-2.454-1.064-3.646-3.588-5.604-5.205c-3.285-1.818-4.125,0.906-5.236,3.07
		c-1.613,3.412-1.323,7.883-5.171,10.045c-1.771,0.301-3.24-0.45-4.659-1.4c-1.399-0.905-2.795-1.826-4.294-2.56
		C680.371,299.539,673.229,303.387,672.295,295.525z"/>
	<path fill-rule="evenodd" clip-rule="evenodd" fill="#DDC75C" d="M747.162,288.159c1.727-10.583,5.388-20.497,9.683-30.189
		c4.009,5.015,9.859,8.418,12.149,14.943c3.2,5.005,6.399,10.009,9.601,15.015c-0.025,0.831-0.049,1.661-0.059,2.492
		c-3.457,3.735-6.839-3.85-10.306-0.044c-2.161,0.448-4.335,0.572-6.521,0.691c-2.869,0.076-5.637,0.809-8.438,1.36
		C750.563,292.048,746.778,293.3,747.162,288.159z"/>
	<path fill-rule="evenodd" clip-rule="evenodd" fill="#B7697E" d="M652.634,553.929c-8.323-0.427-12.136-7.388-17.072-12.718
		c-1.605-7.754-1.088-14.069,8.81-14.035c3.232,0.962,5.243,3.54,7.329,6.006c9.38,4.056,18.96,1.74,28.498,0.979
		c10.717,7.476,23.925,7.196,35.424,12.237c-4.174,3.455-9.219,1.435-13.788,2.38c-10.815-0.054-21.639,0.12-32.449-0.243
		C663.068,548.32,657.153,548.536,652.634,553.929z"/>
	<path fill-rule="evenodd" clip-rule="evenodd" fill="#D39D91" d="M648.17,535.779c-0.862-2.37-1.724-4.739-2.586-7.107
		c0.463-0.445,0.928-0.885,1.39-1.336c17.539,1.69,36.104-3.204,51.832,9.867c7.667,6.372,17.352-0.757,25.734,2.625
		c1.175,0.826,1.62,1.961,1.332,3.402c-3.414,1.055-6.829,2.112-10.246,3.168c-13.385,1.609-25.479-1.831-36.369-9.998
		C668.869,537.562,658.486,538.547,648.17,535.779z"/>
	<path fill-rule="evenodd" clip-rule="evenodd" fill="#E2A817" d="M800.537,506.36c-3.594,10.687-13.153,13.648-21.619,18.022
		c-1.819-1.194-2.359-3.028-2.388-5.124c4.141-9.673,11.493-15.1,21.281-17.296C799.738,502.743,801.082,503.921,800.537,506.36z"/>
	<path fill-rule="evenodd" clip-rule="evenodd" fill="#D9A61B" d="M778.254,517.98c0.219,2.135,0.439,4.268,0.659,6.404
		c-3.19,6.263-10.039,5.79-15.01,8.777c-2.082-2.688-6.968-1.393-7.781-5.905C761.685,519.493,769.583,517.744,778.254,517.98z"/>
	<path fill-rule="evenodd" clip-rule="evenodd" fill="#E5A613" d="M756.532,528.488c3.266,0.182,6.963-0.367,7.371,4.674
		c-1.483,0.185-2.974,0.374-4.458,0.56c-4.015,1.249-8.25,3.613-10.869-2.292C749.76,526.161,752.754,526.182,756.532,528.488z"/>
	<path fill-rule="evenodd" clip-rule="evenodd" fill="#D0A623" d="M749.361,531.02c2.67,3.688,6.697,1.906,10.085,2.701
		c-4.289,3.786-9.265,5.146-14.806,4.521c-1.41-1.534-1.759-3.345-1.292-5.373C744.767,530.209,746.596,528.976,749.361,531.02z"/>
	<path fill-rule="evenodd" clip-rule="evenodd" fill="#DDA009" d="M800.537,506.36c-1.029-0.983-2.053-1.963-3.081-2.94
		c-1.53-4.737-0.077-6.563,4.673-5.162c1.895-0.101,4.035-2.256,5.562,0.714C807.539,503.766,804.914,505.979,800.537,506.36z"/>
	<path fill-rule="evenodd" clip-rule="evenodd" fill="#E8A809" d="M744.548,533.354c0.032,1.629,0.061,3.258,0.092,4.889
		c-3.356-0.144-5.826,3.842-9.504,2.193c-1.541-1.634-1.488-3.453-0.578-5.372C737.455,531.778,740.637,530.26,744.548,533.354z"/>
	<path fill-rule="evenodd" clip-rule="evenodd" fill="#E9B328" d="M734.998,536.141c0.044,1.434,0.088,2.864,0.133,4.293
		c-2.896,1.62-5.697,3.58-9.264,2.797c-0.152-0.798-0.345-1.594-0.575-2.375c-0.665-1.147-0.572-2.248,0.164-3.321
		C728.372,535.122,731.358,533.179,734.998,536.141z"/>
	<path fill-rule="evenodd" clip-rule="evenodd" fill="#DDC85E" d="M795.316,318.125c1.658-0.188,3.316-0.376,4.974-0.568
		c0.834,0.896,1.666,1.797,2.501,2.698c-1.013,2.959-2.323,5.818-2.729,8.998c-0.275,1.141-0.721,2.182-1.291,3.193
		c-2.079,2.658-4.826,3.192-7.89,2.736c-1.144-0.313-2.16-0.901-3.049-1.707C788.26,327.276,792.398,323.02,795.316,318.125z"/>
	<path fill-rule="evenodd" clip-rule="evenodd" fill="#DBB657" d="M798.026,330.677c-0.056-0.884-0.114-1.769-0.171-2.654
		c2.46-2.611,4.945-5.162,8.95-3.483c2.407,1.264,1.171,4.386,2.846,6.025c0.07,0.676,0.143,1.353,0.212,2.028
		c-2.305,2.71-5.451,1.803-8.328,2.099C799.624,334.053,798.591,332.588,798.026,330.677z"/>
	<path fill-rule="evenodd" clip-rule="evenodd" fill="#EAC55F" d="M807.018,325.517c-3.058,0.834-6.111,1.671-9.163,2.506
		c-0.377-3.975,0.235-7.272,4.936-7.768c1.953,0.308,3.94,0.553,4.956,2.707C808.403,324.092,808.159,324.944,807.018,325.517z"/>
	<path fill-rule="evenodd" clip-rule="evenodd" fill="#977307" d="M800.518,333.475c3.116-0.293,6.232-0.584,9.345-0.88
		c0.72,0.291,1.457,0.523,2.211,0.699c0.107,0.783,0.011,1.538-0.287,2.263c-2.361,0.122-4.723,0.248-7.082,0.374
		C802.286,336.994,800.333,337.196,800.518,333.475z"/>
	<path fill-rule="evenodd" clip-rule="evenodd" fill="#DDC85E" d="M800.518,333.475c1.395,0.818,2.791,1.636,4.187,2.456
		c3.081,5.5,0.76,13.45,7.297,17.386c0.11,1.596,0.224,3.186,0.336,4.779c0.311,3.921-1.673,8.902,4.364,10.17
		c0.189,3.277,0.377,6.554,0.568,9.834c-0.07,1.681-0.143,3.363-0.215,5.048c3.048,8.094,0.396,17.318,4.622,25.18l0.398-0.172
		c1.537,10.035,1.567,20.07-0.019,30.103c-0.093,6.661-0.19,13.318-0.286,19.974c-0.749,0.14-1.5,0.22-2.259,0.227
		c-9.445-19.259-22.283-25.315-43.62-20.588c-4.188,0.928-8.26,3.541-12.702,0.956c-2.498-2.331-3.794-5.383-4.39-8.682
		c-5.368-29.795-13.925-58.926-17.165-89.153c-0.041-1.313,0.077-2.624,0.284-3.919c0.585-3.104,1.701-5.984,3.61-8.478
		c0.777-0.837,1.75-1.314,2.866-1.43c2.11,0.447,3.289,2.332,4.929,3.492c1.701,0.903,3.587,1.031,5.427,1.389
		c1.408,0.489,2.527,1.386,3.448,2.569c1.297,2.005,1.643,4.446,2.799,6.511c0.597,0.665,1.236,1.275,1.982,1.737
		c2.537,0.586,4.486-0.778,6.468-2.036c3.773-3.153,7.819-5.682,12.738-6.293c1.542-0.235,3.16-0.213,4.431-1.388
		c2.648-0.246,5.6,0.492,7.409-2.473C798.856,331.612,799.689,332.544,800.518,333.475z"/>
	<path fill-rule="evenodd" clip-rule="evenodd" fill="#E2A918" d="M822.056,438.259c0.005-10.032,0.011-20.067,0.019-30.103
		c0.726,0.063,1.457,0.103,2.187,0.112C823.135,418.234,826.66,428.569,822.056,438.259z"/>
	<path fill-rule="evenodd" clip-rule="evenodd" fill="#AEB658" d="M828.884,438.253c0.089,1.699,0.179,3.398,0.271,5.097
		l-0.18-0.014c-0.604,1.088-1.259,1.175-1.967,0.102C826.772,441.373,826.909,439.453,828.884,438.253z"/>
	<path fill-rule="evenodd" clip-rule="evenodd" fill="#9AB866" d="M827.008,443.437c0.656-0.058,1.314-0.091,1.971-0.102
		c-0.029,1.725-0.054,3.45-0.079,5.174C826.938,447.352,826.727,445.495,827.008,443.437z"/>
	<path fill-rule="evenodd" clip-rule="evenodd" fill="#F9F1A8" d="M764.112,438.48c12.839-5.832,25.793-7.036,39.482-2.818
		c11.395,3.51,18.295,9.396,15.917,22.798c-0.854,4.986-1.705,9.972-2.559,14.959c-0.901,1.612-1.806,3.227-2.708,4.837
		c-2.246,7.836-8.94,12.77-12.113,20.002c-2.775,0.53-4.197,2.383-4.672,5.162c-6.402,4.856-12.806,9.71-19.205,14.564
		c-6.752,4.582-15.562,4.592-21.722,10.505c-2.656,0.026-5.379-0.142-7.172,2.532c-1.974-0.049-3.729,0.399-4.813,2.334
		c-3.469-0.134-6.71,0.592-9.55,2.787c-3.65-1.126-6.117,2.42-9.443,2.585c-0.828-0.942-1.796-2.418-1.214-3.271
		c10.992-16.123,8.558-33.143,3.318-50.386C735.995,466.328,749.05,451.556,764.112,438.48z"/>
	<path fill-rule="evenodd" clip-rule="evenodd" fill="#E0C556" d="M821.677,408.328c-9.813-6.754-2.26-16.948-4.622-25.18
		c1.551,3.396,3.102,6.793,4.656,10.189C821.699,398.336,821.689,403.332,821.677,408.328z"/>
	<path fill-rule="evenodd" clip-rule="evenodd" fill="#FDFDD1" d="M684.931,596.045c-0.986-1-1.969-2-2.955-3
		c-2.295-3.327-3.06-6.604,0.296-9.75c3.898,2.4,4.357,6.377,4.468,10.513C686.138,594.554,685.535,595.297,684.931,596.045z"/>
	<path fill-rule="evenodd" clip-rule="evenodd" fill="#FCC807" d="M568.479,377.857c-5.477,0.198-10.955,0.398-16.431,0.597
		c-4.021,2.159-7.913,3.54-10.684-1.893c0.977-4.29,4.304-5.889,7.854-6.462c16.378-2.635,32.228-8.527,49.013-8.652
		c2.789,0.828,4.355,2.746,4.689,5.728c-0.409,1.238-1.191,2.156-2.321,2.736c-4.59,2.071-10.215,0.381-14.345,4.209
		c-1.442,0.826-2.991,1.32-4.606,1.588c-1.532,0.247-3.083,0.32-4.628,0.389C574.161,376.598,571.101,376.059,568.479,377.857z"/>
	<path fill-rule="evenodd" clip-rule="evenodd" fill="#F2CED3" d="M576.529,373.602c1.389,0.154,2.778,0.311,4.167,0.467
		c4.024,8.105,6.108,15.834-3.812,21.249c-2.32,0.192-4.402-0.323-6.009-2.228c0.074-4.876,0.148-9.753,0.221-14.631
		C572.315,376.123,574.185,374.579,576.529,373.602z"/>
	<path fill-rule="evenodd" clip-rule="evenodd" fill="#FAC91B" d="M541.893,375.676c2.672,3.724,6.737,1.959,10.151,2.775
		c-3.9,8.349-11.546,2.903-17.138,5.025c-1.517-2.541-1.874-5.108-0.155-7.719C537.11,373.558,539.49,373.565,541.893,375.676z"/>
	<path fill-rule="evenodd" clip-rule="evenodd" fill="#FA98A8" d="M570.875,393.09c1.561,0.128,3.121,0.253,4.681,0.378
		c0.575,0.688,0.765,1.372,0.569,2.057c-0.194,0.682-0.387,1.025-0.57,1.025c-0.906,0.691-1.906,1.211-2.986,1.547
		c-5.264,1.142-10.751-0.02-15.972,1.641c-1.011,0.322-2.045,0.538-3.094,0.677c-0.694-0.688-1.387-1.374-2.083-2.059
		C555.825,388.31,564.504,395.305,570.875,393.09z"/>
	<path fill-rule="evenodd" clip-rule="evenodd" fill="#FBC624" d="M576.529,373.602c-0.604,3.077-2.74,4.303-5.434,4.854
		c-0.872-0.198-1.744-0.397-2.618-0.599C570.215,374.506,572.712,372.707,576.529,373.602z"/>
	<path fill-rule="evenodd" clip-rule="evenodd" fill="#E8A509" d="M541.893,375.676c-2.382,0.025-4.761,0.052-7.142,0.078
		c-25.683,5.235-50.518,1.572-74.818-7.69c-6.895-6.057-9.555-15.055-14.471-22.487c0.633-9.196-1.858-18.664,2.22-27.561
		c0.189-2.259,0.84-4.251,2.915-5.416c25.452,0.22,50.901,0.44,76.354,0.66c20.847,0.72,41.471,2.965,61.425,9.693
		c1.087,0.576,2.046,1.36,2.875,2.288c1.681,2.319,3.1,4.946,6.006,5.975c5.334,2.339,11.768-0.369,16.663,3.927
		c0.946,1.575,0.964,3.418-0.296,4.485c-7.292,6.183-9.845,15.386-14.163,23.461C580.273,367.282,561.082,371.477,541.893,375.676z"
		/>
	<path fill-rule="evenodd" clip-rule="evenodd" fill="#FAEC9F" d="M589.778,326.346c-20.339-7.479-42.36-6.244-62.824-13.088
		c1.58-0.638,5.822-0.031,1.547-3.452c-4.166-3.339-1.698-5.124,1.399-6.805c3.208,8.671,11.429,5.776,17.227,7.206
		c14.137,3.488,28.665,5.264,43.034,7.729c1.526,1.436,1.958,3.258,1.738,5.31C591.598,324.579,590.889,325.613,589.778,326.346z"/>
	<path fill-rule="evenodd" clip-rule="evenodd" fill="#FCCC04" d="M565.984,187.501c-0.795,1.643-1.59,3.282-2.382,4.922
		c-2.392,0.104-4.784,0.211-7.176,0.318c-0.013-1.676-0.025-3.354-0.038-5.032c1.315-1.584,2.851-2.681,4.993-2.434
		c1.6-1.295,2.789-0.293,3.972,0.762C565.564,186.524,565.774,187.013,565.984,187.501z"/>
	<path fill-rule="evenodd" clip-rule="evenodd" fill="#E2C2A7" d="M611.642,147.818c0.904-2.583,1.81-5.165,2.715-7.75
		c1.348-1.997,2.748-3.904,5.526-3.429c1.747,0.291,3.438,0.811,5.141,1.302c6.673,2.802,14.806-1.115,20.786,4.837
		c-1.909,2.746-4.753,2.259-7.438,2.331c-4.365,3.08-9.812-0.697-14.172,2.412c-9.065,2.658-3.247,10.688-5.31,15.878
		C616.474,158.205,614.057,153.011,611.642,147.818z"/>
	<path fill-rule="evenodd" clip-rule="evenodd" fill="#F9CC21" d="M597.478,183.2c-2.366-0.052-4.731-0.102-7.097-0.153
		c-1.505-0.378-2.397-1.366-2.717-2.928c4.805-4.784,10.839-2.086,16.299-2.888c5.114-2.53,10.176-3.123,15.129,0.431
		c-0.008,1.568-0.015,3.14-0.022,4.709c-3.786,4.497-8.915,3.564-13.788,3.724C602.444,185.832,599.63,185.465,597.478,183.2z"/>
	<path fill-rule="evenodd" clip-rule="evenodd" fill="#FCCE26" d="M587.664,180.118c0.904,0.974,1.808,1.946,2.714,2.921
		c-3.079,8.076-9.648,3.437-14.692,4.355c-1.007-2.582,0.805-3.737,2.359-5.022C580.514,178.226,584.513,181.129,587.664,180.118z"
		/>
	<path fill-rule="evenodd" clip-rule="evenodd" fill="#FECF04" d="M578.045,182.373c-0.786,1.674-1.573,3.351-2.359,5.024
		c-3.234,0.035-6.468,0.072-9.702,0.105c0-0.002-0.032-0.085-0.032-0.085c-0.924-4.56,3.554-2.629,4.928-4.428
		C573.1,180.668,575.508,180.728,578.045,182.373z"/>
	<path fill-rule="evenodd" clip-rule="evenodd" fill="#C2A908" d="M570.88,182.99c-1.642,1.477-3.285,2.954-4.928,4.429
		c-1.524-0.716-3.048-1.431-4.572-2.144C563.987,181.999,567.444,182.544,570.88,182.99z"/>
	<path fill-rule="evenodd" clip-rule="evenodd" fill="#DDC85E" d="M795.316,318.125c1.31,7.002-2.102,11.45-7.457,14.845
		c-2.162,2.717-5.277,2.429-8.179,2.796c-5.919,0.905-7.007,12.526-15.568,7.587l-0.287-0.676
		c0.107-16.063,1.262-31.788,13.246-44.005c1.942-1.811,4.007-2.749,6.426-0.906c1.479,0.161,2.956,0.323,4.435,0.487
		c0.041,3.246,0.089,6.487,0.131,9.732c-1.749,3.382-4.208,6.396-4.943,10.291c-0.04,0.221,0.443,0.739,0.723,0.773
		c0.298,0.039,0.643-0.332,0.993-0.624c2.117-2.483,3.209-5.65,5.597-7.808C792.058,313.119,793.691,315.622,795.316,318.125z"/>
	<path fill-rule="evenodd" clip-rule="evenodd" fill="#DDC85E" d="M785.705,320.504c-0.368,2.526-1.085,5.031-4.146,4.501
		c-3.037-0.521-3.116-3.037-2.458-5.582c1.344-5.189,3.37-9.825,8.961-11.438c0.005,0.846,0.006,1.691,0.01,2.537
		C790.934,314.783,786.998,317.305,785.705,320.504z"/>
	<path fill-rule="evenodd" clip-rule="evenodd" fill="#DDC85E" d="M785.705,320.504c0.786-3.329,1.576-6.655,2.366-9.982
		c0.786-0.007,1.574,0.022,2.36,0.093C790.729,314.88,790.038,318.63,785.705,320.504z"/>
	<path fill-rule="evenodd" clip-rule="evenodd" fill="#DCC65C" d="M783.496,297.766c-2.022,0.257-4.041,0.524-5.096,2.733
		c-1.631,1.937-3.871,1.265-5.902,1.496c-1.017-0.353-1.84-0.979-2.489-1.865c-1.393-2.921-1.675-6.129-2.17-9.284
		c-0.022-1.083,0.303-2.053,0.952-2.903c4.231-3.347,6.066,3.477,9.745,2.478C781.576,291.857,783.118,294.388,783.496,297.766z"/>
	<path fill-rule="evenodd" clip-rule="evenodd" fill="#FEFEC1" d="M682.273,583.295c-0.099,3.253-0.198,6.504-0.299,9.755
		c-3.666-0.607-4.683-3.371-5.036-6.673c-0.234-4.745,2.408-4.035,5.232-2.975L682.273,583.295z"/>
	<path fill-rule="evenodd" clip-rule="evenodd" fill="#F5F4CF" d="M682.169,583.402c-2.094,0.332-4.143,0.737-5.232,2.972
		c-1.636-1.353-5.394-2.408-2.563-5.107C676.947,578.812,680.426,579.263,682.169,583.402z"/>
	<path fill-rule="evenodd" clip-rule="evenodd" fill="#DF90C6" d="M645.584,528.673c-7.927,0.227-10.246,5.284-10.02,12.539
		c-3.998-5.39-0.767-11.682-2.002-17.416c2.248-3.506,6.418-2.614,9.39-4.474c0.87-0.58,1.785-1.048,2.741-1.456
		c1.013-0.325,2.046-0.416,3.102-0.311c2.611,0.592,5.235,1.162,7.055,3.485c-0.238,6.678-6.167,4.932-9.55,6.955L645.584,528.673z"
		/>
	<path fill-rule="evenodd" clip-rule="evenodd" fill="#E1D3DC" d="M628.857,521.03c0.005-3.388,0.015-6.772,0.019-10.156
		c1.212-1.238,2.658-1.509,4.27-1.155c1.516,0.593,2.659,1.65,3.521,3.055c0.391,1.013,0.542,2.061,0.438,3.152
		c-0.512,2.108-1.389,4.021-2.936,5.552c-0.973,0.579-1.867,0.496-2.671-0.352C630.618,521.093,629.737,521.061,628.857,521.03z"/>
	<path fill-rule="evenodd" clip-rule="evenodd" fill="#8C5A75" d="M631.497,521.126c0.69-0.049,1.356-0.205,2.003-0.464
		c4.146-2.672,8.254-3.495,12.267,0.278c-3.184,5.039-8.222,1.521-12.208,2.855C632.872,522.904,632.184,522.014,631.497,521.126z"
		/>
	<path fill-rule="evenodd" clip-rule="evenodd" fill="#FEF885" d="M645.81,142.778c-8.082-1.057-16.575,1.808-24.292-2.744
		c-4.532-7.372-0.808-13.651,2.462-19.988c0.038-0.81,0.015-1.618-0.071-2.423c6.631-8.983,16.317-2.349,24.167-5.104
		c2.276,1.785,6.283,1.534,6.408,5.863c-0.974,7.616-1.562,15.358-6.351,21.779C647.36,141.035,646.582,141.906,645.81,142.778z"/>
	<path fill-rule="evenodd" clip-rule="evenodd" fill="#FEF885" d="M684.313,115.002c-0.002,0.842-0.005,1.688-0.005,2.529
		c-7.935,5.808-15.411,2.188-22.903-1.199c-1.12-0.995-1.524-2.245-1.225-3.744c2.535-0.082,5.076-0.168,7.618-0.254
		c4.707,0.086,9.411,0.175,14.117,0.265C682.905,113.193,683.695,114.006,684.313,115.002z"/>
	<path fill-rule="evenodd" clip-rule="evenodd" fill="#FDF88C" d="M660.179,112.588c0.005,0.814,0.009,1.626,0.015,2.439
		c-0.175,0.504-0.348,1.006-0.519,1.512c-0.983,1.328-2.265,2.144-3.86,2.423c-1.063-0.003-1.987-0.394-2.788-1.114
		c-1.65-1.776-3.299-3.551-4.952-5.328C652.111,112.543,656.145,112.566,660.179,112.588z"/>
	<path fill-rule="evenodd" clip-rule="evenodd" fill="#FEF885" d="M684.313,115.002c-0.8-0.802-1.599-1.603-2.398-2.406
		c3.413,0.043,7.096-1.133,9.759,2.318C689.239,116.517,686.786,116.566,684.313,115.002z"/>
	<path fill-rule="evenodd" clip-rule="evenodd" fill="#FEF885" d="M660.194,115.027c8.152-0.349,15.853,3.973,24.114,2.504
		c0.011,0.762,0.072,1.521,0.176,2.272c0.002-0.002-0.21,0.278-0.21,0.278c-3.429,5.423-3.37,12.192-6.345,17.794
		c-3.532,2.852-8.003,3.909-11.646,6.584c-1.012,0.564-2.067,1.007-3.148,1.402c-3.422,1.308-6.794,1.469-10.06-0.505
		c-0.867-1.758-1.735-3.516-2.601-5.275c0.172-0.537,0.347-1.075,0.515-1.613c3.065-7.811,3.231-16.849,9.206-23.424V115.027z"/>
	<path fill-rule="evenodd" clip-rule="evenodd" fill="#EAC0A8" d="M662.274,142.765c0.888-0.059,1.779-0.117,2.667-0.175
		c3.265,1.854,6.711,0.991,10.116,0.702c1.48-0.272,2.961-0.341,4.455-0.16c0.983,0.187,1.917,0.537,2.794,1.043
		c1.211,0.982,2.1,2.168,2.173,3.847c-2.325,6.592-18.357,16.079-24.653,13.634c-5.797-2.25-6.213-7.855-4.678-13.545
		C656.823,145.321,661.503,146.853,662.274,142.765z"/>
	<path fill-rule="evenodd" clip-rule="evenodd" fill="#FEF885" d="M653.028,117.848c0.647-0.102,1.297-0.146,1.956-0.134
		c2.287,8.287-1.101,15.295-4.662,22.266c0,0,0.152,0.101,0.151,0.101l-1.168,0.123l-1.172-0.041
		C647.925,132.289,650.171,124.995,653.028,117.848z"/>
	<path fill-rule="evenodd" clip-rule="evenodd" fill="#FDE6C8" d="M684.479,148.022c-0.83-0.838-1.663-1.679-2.494-2.518
		c3.65-3.983,6.146-8.92,9.854-12.856c0.737,0.016,1.471-0.029,2.201-0.131C693.731,139.6,694.569,147.445,684.479,148.022z"/>
	<path fill-rule="evenodd" clip-rule="evenodd" fill="#EABFA8" d="M624.2,147.521c4.13-4.572,9.464-1.513,14.172-2.412
		c0.163,0.801,0.174,1.606,0.038,2.412C633.674,147.521,628.937,147.521,624.2,147.521z"/>
	<path fill-rule="evenodd" clip-rule="evenodd" fill="#FDE6C8" d="M662.274,142.765c0.47,5.875-4.115,4.475-7.126,5.343
		c-0.69-0.918-1.382-1.836-2.073-2.755C656.14,144.491,659.209,143.629,662.274,142.765z"/>
	<path fill-rule="evenodd" clip-rule="evenodd" fill="#FEF1CC" d="M604.671,183.191c4.798-0.272,9.598-0.543,14.397-0.818
		c7.305,12.587,14.608,25.178,21.912,37.767c6.339,14.948,12.688,29.889,19.001,44.85c1.358,3.215,4.326,7.007-2.182,7.928
		c-28.786-14.184-44.606-40.192-57.615-68.619c-2.362-5.152-3.384-10.968-5.024-16.477
		C597.793,185.09,601.275,184.233,604.671,183.191z"/>
	<path fill-rule="evenodd" clip-rule="evenodd" fill="#D7AF5C" d="M677.051,270.391c-2.75,2.389-4.977,6.711-9.444,2.764
		c1.409-0.92,2.818-1.847,4.225-2.768C673.57,270.389,675.313,270.391,677.051,270.391z"/>
	<path fill-rule="evenodd" clip-rule="evenodd" fill="#FDE6C8" d="M691.84,132.649c-0.593,6.511-1.562,12.711-9.854,12.856
		l-0.139-0.762c-1.916-1.691-1.283-4.55-2.773-6.447c-0.471-0.873-0.712-1.807-0.721-2.807c0.356-2.001,0.583-4.161,3.464-2.929
		C685.157,132.589,688.498,132.619,691.84,132.649z"/>
	<path fill-rule="evenodd" clip-rule="evenodd" fill="#FEF885" d="M681.816,132.559c-0.82,1.622-1.638,3.242-2.455,4.866
		c-0.731,0.662-1.442,0.646-2.141-0.052c0.628-6.523,0.365-13.437,7.054-17.293C684.803,124.529,684.447,128.784,681.816,132.559z"
		/>
	<path fill-rule="evenodd" clip-rule="evenodd" fill="#FEF885" d="M619.009,137.578c-1.55,0.831-3.102,1.66-4.652,2.49
		c0.72-6.491-7.393-10.316-4.859-17.356c3.956-0.166,7.914-0.335,11.87-0.504C623.613,127.834,620.069,132.5,619.009,137.578z"/>
	<path fill-rule="evenodd" clip-rule="evenodd" fill="#FEF885" d="M619.009,137.578c0.787-5.123,1.575-10.245,2.359-15.369
		c0.87-0.722,1.74-1.44,2.612-2.163c-0.821,6.663-1.641,13.326-2.46,19.988C620.682,139.216,619.846,138.396,619.009,137.578z"/>
	<path fill-rule="evenodd" clip-rule="evenodd" fill="#FCDBA7" d="M652.945,300.495c-2.37,0-4.758,0.209-7.103-0.038
		c-11.664-1.229-19.095,2.821-20.254,16.122c-0.339,3.878-2.388,7.594-3.653,11.382c-1.005-0.416-1.839-1.067-2.518-1.945
		c-0.944-1.371-1.576-2.877-1.794-4.556c0.356-5.543,3.861-10.074,4.616-15.501c0.736-2.128,1.666-4.143,3.131-5.846
		c1.713-1.256,3.14-3.293,5.695-2.291C638.297,299.261,646.135,295.344,652.945,300.495z"/>
	<path fill-rule="evenodd" clip-rule="evenodd" fill="#AC8144" d="M631.066,297.822c-1.541,0.996-3.081,1.992-4.621,2.991
		c-4.253,3.675-9.702,2.161-14.461,3.649c-1.6,0.568-3.225,0.944-4.928,0.667c-4.135-7.637,2.325-6.878,5.748-6.944
		c6.247-0.121,12.34-0.683,18.344-2.427C631.174,296.448,631.148,297.136,631.066,297.822z"/>
	<path fill-rule="evenodd" clip-rule="evenodd" fill="#D38921" d="M672.295,295.525c3.562,5.513,10.859-0.652,14.383,4.963
		c-5.017,4.462-10.421,3.813-15.972,1.311c-1.329-0.989-1.631-2.254-0.919-3.783C670.624,297.186,671.462,296.353,672.295,295.525z"
		/>
	<path fill-rule="evenodd" clip-rule="evenodd" fill="#FECB7F" d="M669.788,298.016c0.026,0.788,0,1.573-0.075,2.359
		c-1.358,4.609-4.954,5.93-8.988,6.615c-1.126-0.152-2.116-0.621-2.941-1.446l0.002-0.083
		C660.295,300.38,663.977,297.346,669.788,298.016z"/>
	<path fill-rule="evenodd" clip-rule="evenodd" fill="#F9EBA8" d="M604.671,183.191c-2.656,2.684-5.883,4.101-9.512,4.628
		c0.774-1.54,1.546-3.079,2.319-4.619C599.875,183.196,602.272,183.193,604.671,183.191z"/>
	<path fill-rule="evenodd" clip-rule="evenodd" fill="#D38921" d="M660.233,305.693c3.161-1.772,6.322-3.544,9.483-5.318
		c5.652,0.035,11.309,0.076,16.962,0.112c0.872,0.902,1.738,1.807,2.606,2.705c1.603,12.253,0.09,23.438-10.062,31.673
		c-5.984,2.138-12.064,1.867-18.176,0.724c-4.311-1.512-6.518-4.735-7.023-9.336C655.103,319.089,656.675,312.067,660.233,305.693z"
		/>
	<path fill-rule="evenodd" clip-rule="evenodd" fill="#D38921" d="M742.296,290.433c0.724-0.088,1.452-0.165,2.182-0.228
		c1.961,3.49,0.162,6.095-1.874,8.646c-0.985,0.74-2.077,1.266-3.25,1.607c-4.515,1.07-9.171,0.392-13.714,1.092
		c-6.452,2.286-6.176,7.947-6.22,13.425c0.108,2.072-0.148,4.196,0.884,6.094c3.812,2.732,8.391,0.757,12.377,2.279
		c1.161,0.428,2.161,1.084,3.052,1.96c1.388,2.485,1.391,4.993,0.196,7.543c-0.836,1.105-1.88,1.9-3.132,2.424
		c-7.896,1.776-15.816,1.426-23.762,0.363c-4.232-1.396-6.966-4.153-7.466-8.914c-0.05-1.375,0.143-2.726,0.532-4.04
		c4.715-10.564,4.769-23.469,14.555-31.529C725.131,287.912,733.705,288.841,742.296,290.433z"/>
	<path fill-rule="evenodd" clip-rule="evenodd" fill="#DDC85E" d="M735.129,332.491c-0.008-2.263-0.017-4.524-0.021-6.788
		c-1.507-6.98,1.497-13.296,2.701-19.882c0.795-3.058,2.282-5.695,4.469-7.902c0.732-2.57,1.47-5.14,2.203-7.712
		c0.895-0.685,1.783-1.368,2.678-2.051c1.757,2.835,4.563,2.161,7.122,2.31c4.37,1.93,4.24,5.207,2.521,8.974
		c-4.637,9.186-4.495,20.11-9.737,29.081c-0.8,2.313-1.596,4.626-2.393,6.936C740.351,338.427,736.994,338.044,735.129,332.491z"/>
	<path fill-rule="evenodd" clip-rule="evenodd" fill="#D38921" d="M705.934,290.396c0.854,2.539,1.704,5.081,2.558,7.622
		c-0.155,0.514-0.314,1.025-0.462,1.542c-2.506,5.992-3.573,12.415-5.164,18.69c-1.687,3.691-2.245,7.787-3.837,11.522
		c-1.711,3.879-4.381,5.908-8.655,4.797c-1.196-0.494-2.029-1.364-2.516-2.6c-0.869-7.781,2.384-14.768,3.946-22.092
		c3.12-3.479,3.334-8.012,4.144-12.334C698.202,293.535,698.139,286.039,705.934,290.396z"/>
	<path fill-rule="evenodd" clip-rule="evenodd" fill="#D38921" d="M715.695,293.009c-3.504,7.233-7.007,14.461-7.315,22.806
		c-0.135,3.624-2.012,6.01-5.146,7.422c-2.45,0.047-3.058-1.165-2.16-3.407c3.169-7.021,1.356-15.848,7.347-21.845l0.071,0.032
		c2.361-2.597,4.727-5.194,7.092-7.792c0.797,0.586,1.081,1.193,0.85,1.821C716.195,292.689,715.95,293.009,715.695,293.009z"/>
	<path fill-rule="evenodd" clip-rule="evenodd" fill="#D38921" d="M679.237,332.959c7.264-8.495,6.266-20,10.045-29.766
		c0.852,0.738,1.699,1.475,2.548,2.209c1.239,1.592,0.973,3.36,0.552,5.146c-1.521,6.443-3.116,12.873-4.623,19.329
		c-0.992,2.473-2.621,4.133-5.273,4.512C681.215,334.377,680.134,333.899,679.237,332.959z"/>
	<path fill-rule="evenodd" clip-rule="evenodd" fill="#D38921" d="M715.695,293.009c-0.036-0.928-0.074-1.852-0.112-2.78
		c8.931-3.596,17.838-3.915,26.713,0.203C733.438,291.36,724.215,288.284,715.695,293.009z"/>
	<path fill-rule="evenodd" clip-rule="evenodd" fill="#D38921" d="M691.5,310.479c0.11-1.689,0.219-3.381,0.328-5.074
		c3.498-2.403,0.605-7.86,4.468-10.087c0.723,0.559,0.981,1.139,0.771,1.741c-0.207,0.612-0.43,0.917-0.663,0.917
		c0.198,4.389-0.121,8.665-2.455,12.518C693.129,311.355,692.312,311.395,691.5,310.479z"/>
	<path fill-rule="evenodd" clip-rule="evenodd" fill="#D38921" d="M696.405,297.976c-0.037-0.886-0.071-1.77-0.108-2.659
		c0.175-8.055,3.438-9.597,9.639-4.922C699.73,288.817,699.276,295.037,696.405,297.976z"/>
	<path fill-rule="evenodd" clip-rule="evenodd" fill="#DBC76D" d="M753.921,298.218c4.096-2.386,1.222-5.121,0.359-7.753
		c1.754-2.949,4.604-2.442,7.279-2.487c1.639,2.398,0.351,5.703,2.337,7.971c2.177,1.765,5.067,2.21,7.086,4.22l0.32,0.595
		c0.81,2.667-0.512,4.314-2.498,5.642c-0.53,0.123-1.067,0.236-1.597,0.365c-0.537-0.015-1.082-0.047-1.628-0.049
		c-3.929-1.591-8.554,1.676-12.227-1.831C753.112,302.627,752.789,300.355,753.921,298.218z"/>
	<path fill-rule="evenodd" clip-rule="evenodd" fill="#DDC85E" d="M761.647,298.054c-4.564-3.316-1.424-6.704-0.087-10.076
		c2.411-0.013,4.823-0.022,7.231-0.036c0.032,0.894,0.063,1.785,0.095,2.678c-0.243,0.447-0.484,0.89-0.717,1.342
		c-1.664,1.867-3.407,3.657-5.209,5.39C762.528,297.595,762.083,297.824,761.647,298.054z"/>
	<path fill-rule="evenodd" clip-rule="evenodd" fill="#AB6B6A" d="M648.17,535.779c10.365,0.206,20.727,0.414,31.089,0.621
		C668.833,539.656,658.445,540.708,648.17,535.779z"/>
	<path fill-rule="evenodd" clip-rule="evenodd" fill="#FDE6C8" d="M646.298,527.996c3.065-2.266,6.13-4.533,9.196-6.803
		c1.53-2.2,3.804-2.636,6.177-2.837c1.712-0.056,3.399,0.19,5.06,0.628c3.807,1.313,7.467,1.761,10.429-1.905
		c0.773-0.756,1.67-1.322,2.658-1.732c1.687,0.005,2.95,0.93,4.1,2.077c2.318,2.511,4.25,2.035,5.85-0.857
		c2.095-7.566,5.389-14.841,4.42-22.974c-1.106-1.813-2.716-2.987-4.56-3.876c-12.077-2.153-24.261-5.36-34.664,4.987
		c-5.408-2.361-11.996-2.754-14.749-9.546c2.711-6.279,8.086-8.462,13.983-9.871c9.892-0.48,19.786-0.455,29.65-0.054
		c0.766,0.054,1.595,0.335,2.359,0.206c3.774-0.644,0.635-1.761-0.023-2.029c-7.753-3.183-15.818-1.709-23.78-1.456
		c-3.92,0.124-7.877,2.157-11.7-0.534c-4.593-7.098-2.102-11.92,4.548-15.418c14.305-2.353,28.742-0.278,43.08-1.32
		c5.09-0.753,9.764,0.717,12.788,4.851c5.969,8.161,14.69,13.91,18.944,23.526c-0.709,8.362,5.559,14.543,5.591,23.478
		c0.047,12.563-3.139,22.668-10.103,32.188c-0.093,0.71-0.181,1.422-0.263,2.132c-13.754,4.122-26.63,3.896-38.128-6.751
		c-3.679-3.404-9.02-3.596-13.832-2.845C663.983,532.727,655.089,531.046,646.298,527.996z"/>
	<path fill-rule="evenodd" clip-rule="evenodd" fill="#DDC85E" d="M778.443,333.437c3.139-0.153,6.28-0.312,9.416-0.468
		c0.92,0.06,1.839,0.117,2.758,0.177c-0.9,0.921-1.799,1.841-2.695,2.762c-2.849,1.487-5.851,0.782-8.813,0.673
		c-0.74-0.564-1.086-1.217-1.038-1.959C778.125,333.833,778.248,333.437,778.443,333.437z"/>
	<path fill-rule="evenodd" clip-rule="evenodd" fill="#D38921" d="M730.067,483.06c-7.434-5.032-13.105-11.947-18.658-18.959
		c-2.838-3.585-5.682-7.004-10.374-7.887c-0.405-0.468-0.811-0.936-1.229-1.399c-0.581-1.129-0.96-2.327-1.177-3.588
		c-0.457-3.154-0.486-6.338-0.602-9.518c-0.116-5.146-0.12-10.294-0.165-15.437c0.144-4.998,0.253-10.005,0.005-15.001
		c-0.113-1.759-0.611-3.445-0.993-5.147c-2.757-8.798,0.076-19.134-6.886-26.764c-4.809-5.219-11.81-7.924-15.437-14.488
		c-7.081-8.177-16.334-13.051-25.466-18.104c-5.221-2-10.609-3.753-13.563-9.311c-0.175-1.214,0.216-2.207,1.085-3.018
		c4.493-2.517,10.977-1.413,13.304-7.892c0.729-1.581,1.632-3.013,3.047-4.022c1.892,0.018,3.351,0.43,2.451,2.951
		c1.343,2.842,2.078,6.106,5.028,7.835c1.197,1.011,2.65,1.441,4.077,1.94c5.042,0.457,10.08,0.773,15.095-0.244
		c0.88-0.521,1.688-1.146,2.417-1.876c1.414-0.902,2.828-1.804,4.241-2.707c1.588-0.101,1.825,1.611,2.836,2.284l0.232,0.735
		c5.074,2.185,8.304,1.071,8.646-5.22c1.36-1.855,2.761-3.631,5.412-2.79c0.24,3.688,1.879,6.381,5.21,7.86
		c0.692,0.857,1.532,1.522,2.52,2.006c11.098,1.192,22.471-1.439,33.302,2.831c4.342,33.919,13.144,66.897,19.686,100.35
		C752.762,453.341,741.414,468.201,730.067,483.06z"/>
	<path fill-rule="evenodd" clip-rule="evenodd" fill="#DDC85E" d="M758.837,333.085c-2.323,0.894-4.615,3.948-6.998,0.098
		c-2.587-7.553,0.055-14.631,2.282-21.544c1.808-5.606,5.521-9.11,11.888-6.29l0.553,0.347
		C767.391,315.861,766.173,325.404,758.837,333.085z"/>
	<path fill-rule="evenodd" clip-rule="evenodd" fill="#DDC85E" d="M768.63,305.708c0.891-1.649,1.781-3.299,2.673-4.947
		c2.365-0.086,4.732-0.173,7.098-0.263c-10.878,11.817-9.269,28.29-14.574,42.182c-3.057-1.631-2.16-4.674-2.429-7.301
		C761.709,324.936,764.21,315.07,768.63,305.708z"/>
	<path fill-rule="evenodd" clip-rule="evenodd" fill="#DDC85E" d="M766.009,305.349c-5.624-0.065-8.727,2.228-9.56,8.583
		c-0.854,6.513-3.019,12.84-4.609,19.25c-2.116-1.139-2.449-3.23-2.665-5.385c-0.794-8.092,0.675-15.588,5.411-22.227
		C758.362,303.61,762.117,300.709,766.009,305.349z"/>
	<path fill-rule="evenodd" clip-rule="evenodd" fill="#C88C33" d="M744.426,338.131c-11.925-0.179-23.852-0.35-35.774-0.569
		c-0.185-0.005-0.505-0.595-0.501-0.911c0-0.382,0.278-0.761,0.44-1.143c8.544-3.086,17.606,0.681,26.17-2.14
		c0,0,0.369-0.867,0.369-0.873c2.812,2.267,5.997,3.227,9.542,2.964C744.589,336.347,744.507,337.241,744.426,338.131z"/>
	<path fill-rule="evenodd" clip-rule="evenodd" fill="#DDC85E" d="M754.585,305.571c-1.8,7.409-3.604,14.818-5.408,22.227
		c-0.731,0.16-1.437,0.398-2.113,0.721c-0.335-10.742,3.797-20.393,6.86-30.3C754.144,300.668,754.364,303.119,754.585,305.571z"/>
	<path fill-rule="evenodd" clip-rule="evenodd" fill="#DDC85E" d="M768.63,305.708c-2.412,9.891-4.818,19.782-7.229,29.671
		c-0.855-0.766-1.707-1.528-2.563-2.295c2.574-9.13,5.147-18.259,7.725-27.389C767.25,305.536,767.942,305.542,768.63,305.708z"/>
	<path fill-rule="evenodd" clip-rule="evenodd" fill="#DDC85E" d="M778.443,333.437c-0.01,0.598-0.013,1.191-0.01,1.786
		c-0.692,3.117-1.894,5.917-4.52,7.824c-3.234,1.271-6.277,9.345-9.802,0.302C772.542,345.747,771.068,332.692,778.443,333.437z"/>
	<path fill-rule="evenodd" clip-rule="evenodd" fill="#DAC86F" d="M773.913,343.048c1.503-2.608,3.013-5.215,4.52-7.82
		c3.162,0.226,6.324,0.449,9.488,0.678C783.25,338.289,778.584,340.669,773.913,343.048z"/>
	<path fill-rule="evenodd" clip-rule="evenodd" fill="#F6C87E" d="M546.769,479.127c-0.139-7.443-0.278-14.884-0.418-22.328
		c-3.919-8.132-0.85-16.971-2.362-25.345c-0.42-1.244-1.024-2.38-1.814-3.413c-0.477-3.485-0.956-6.974-1.433-10.46
		c-0.57-1.253-0.875-2.574-0.918-3.96c0.862-9.645,8.848-5.612,13.66-7.684c7.599,2.991,16.382,2.378,23.083,8.126
		c0.495,1.203,0.662,2.471,0.523,3.773c-7.522,18.707-17.818,36.155-23.694,55.643C551.887,476.246,550.576,479.276,546.769,479.127
		z"/>
	<path fill-rule="evenodd" clip-rule="evenodd" fill="#CB8B2E" d="M546.769,479.127c1.546-2.037,3.093-4.074,4.639-6.114
		c3.006,2.912,2.901,6.252,1.254,9.805c-0.965,1.261-2.172,1.598-3.618,1.008c-0.891-0.425-1.781-0.853-2.671-1.279
		C546.504,481.407,546.638,480.267,546.769,479.127z"/>
	<path fill-rule="evenodd" clip-rule="evenodd" fill="#FDE5C8" d="M621.81,333.182c3.074-0.14,6.164,2.583,9.225-0.052
		c5.099,6.829,12.028,10.823,19.684,13.693c7.604,4.84,15.21,9.665,22.492,15.033c4.283,6.662,10.448,11.378,16.005,16.738
		c9.172,15.904,5.836,31.268-1.829,46.448c-1.872,4.849-5.142,8.572-8.874,11.933c-1.976,1.482-4.027,2.705-6.608,1.916
		c-4.731-3.721-2.451-8.004-0.756-12.11c1.859-4.501,4.385-8.72,5.172-13.645c0.424-5.003,3.393-10.386-2.082-14.39
		c-5.171,2.987-3.956,9.4-6.842,13.553c-2.025,4.378-4.46,8.423-8.387,11.277c-8.185,6.039-15.745,13.819-27.258,10.734
		c-3.171-4.602,0.269-8.035,1.919-11.788c0.966-1.455,2.191-2.625,3.648-3.521c4.481-1.68,8.148-4.297,9.708-9.304
		c1.778-3.275,4.03-6.255,6.033-11.37c-8.252,8.861-15.146,17.188-24.856,21.554c-4.517,2.029-9.019,6.09-14.611,2.74
		c-1.811-2.682-1.828-5.606-1.123-8.633c0.604-1.983,1.825-3.606,2.863-5.357c2.651-4.474,11.051-4.115,10.06-10.724
		c-0.783-5.21-6.63-7.875-10.003-11.885c-1.565-1.857-3.346-3.521-5.022-5.277c-3.073-3.987-7.06-7.346-8.185-12.688
		c-0.905-1.657-1.811-3.315-2.718-4.971c-2.329-13.276,6.29-20.223,14.647-27.318c0.277-0.401,0.557-0.803,0.832-1.211
		C617.042,333.087,619.38,332.884,621.81,333.182z"/>
	<path fill-rule="evenodd" clip-rule="evenodd" fill="#EB9BF4" d="M602.18,368.058c4.82,2.026,6.388,7.448,10.2,10.529
		c-0.456,11.749,1.319,23.378,1.77,35.079c0.126,2.931,0.256,5.864,0.382,8.795c0.035,0.582,0.07,1.164,0.115,1.747
		c0.235,4.191,0.267,8.329-2.628,11.775c-1.025,0.652-2.136,0.989-3.334,1.052c-5.327-0.693-10.755-0.175-16.056-1.349
		c-7.956-3.878-13.945-9.079-12.07-19.513c0.783-0.076,1.586-0.307,2.348-0.206c18.754,2.52,18.753,2.526,14.181-17.76
		c-6.785-3.595-14.588,1.246-21.318-2.78c-0.067-0.654-0.136-1.311-0.209-1.964c9.6-4.21,2.882-13.085,5.137-19.396
		c1.546-0.402,3.091-0.803,4.638-1.201c4.157-4.058,10.637-0.182,14.675-4.639C600.744,368.33,601.469,368.273,602.18,368.058z"/>
	<path fill-rule="evenodd" clip-rule="evenodd" fill="#FBC624" d="M600.009,368.229c-3.175,7.407-9.526,3.971-14.675,4.639
		C588.179,364.341,595.021,369.448,600.009,368.229z"/>
	<path fill-rule="evenodd" clip-rule="evenodd" fill="#871A5E" d="M575.768,395.428c6.966,2.087,14.813-3.121,21.318,2.78
		c-7.932-0.022-15.862-0.044-23.792-0.067c-0.729-0.376-0.992-0.782-0.786-1.227c0.214-0.454,0.434-0.684,0.664-0.684
		C574.038,395.964,574.904,395.696,575.768,395.428z"/>
	<path fill-rule="evenodd" clip-rule="evenodd" fill="#911932" d="M573.174,396.231c0.077,0.636,0.119,1.272,0.122,1.91
		c-6.335,0.028-12.673,0.055-19.009,0.084C560.142,393.068,566.859,396.71,573.174,396.231z"/>
	<path fill-rule="evenodd" clip-rule="evenodd" fill="#FECB7F" d="M590.227,323.034c0.799-0.846,1.6-1.693,2.4-2.543
		c3.026,1.746,6.167,2.992,9.728,2.35c0.386,0.493,0.771,0.982,1.159,1.472c0.877,2.612,0.691,4.979-1.458,6.9
		c-4.39,0.775-8.306-0.424-11.866-3.1c-0.236-0.565-0.372-1.157-0.411-1.77C589.927,325.243,590.077,324.139,590.227,323.034z"/>
	<path fill-rule="evenodd" clip-rule="evenodd" fill="#E1B243" d="M590.189,328.113c4.275-0.573,8.306,0.248,12.121,2.296
		c1.174-0.65,2.156-0.382,2.975,0.674c0.146,1.313-0.291,2.324-1.403,3c-2.91,0.025-5.904,0.966-8.644-0.852
		C592.162,333.007,590.248,331.548,590.189,328.113z"/>
	<path fill-rule="evenodd" clip-rule="evenodd" fill="#9F6A00" d="M595.237,333.231c3.2-0.166,6.399-0.336,9.6-0.502
		c1.399-1.165,2.971-1.879,4.781-1.985c1.811,0.006,3.477,0.49,4.923,1.665c0.695,1.083,0.763,2.188,0.107,3.321
		c0,0-0.533,0.037-0.536,0.039C607.883,334.401,601.031,338.059,595.237,333.231z"/>
	<path fill-rule="evenodd" clip-rule="evenodd" fill="#DDC85E" d="M770.983,300.169c-3.222-0.191-6.919,1.887-9.336-2.115
		l-0.079-0.023c2.577-2.34,4.994-4.844,7.241-7.527l0.077,0.117C772.614,293.087,770.635,296.902,770.983,300.169z"/>
	<path fill-rule="evenodd" clip-rule="evenodd" fill="#EAD9C1" d="M662.348,521.139c-2.287,0.018-4.57,0.036-6.854,0.051
		c-2.572-0.253-5.458,0.606-7.312-2.21c0.252-1.058,0.705-2.012,1.337-2.877c3.854-3.828,3.091-10.454,7.724-13.83
		c1.903-1.339,3.935-2.303,6.291-2.324c1.193,0.274,2.086,0.95,2.648,2.088c0.807,5.561-0.577,10.887-1.611,16.251
		C663.977,519.362,663.242,520.316,662.348,521.139z"/>
	<path fill-rule="evenodd" clip-rule="evenodd" fill="#ECDBC2" d="M650.233,518.502c-0.708,0.031-1.392,0.187-2.05,0.475
		c-0.779-0.141-1.557-0.28-2.34-0.422c-0.276-0.514-0.56-1.029-0.848-1.539c0.052-5.414,0.222-10.788,5.253-14.229
		c0.574-0.061,1.148-0.117,1.722-0.179c1.132,0.44,1.881,1.258,2.248,2.456C652.987,509.573,653.562,514.661,650.233,518.502z"/>
	<path fill-rule="evenodd" clip-rule="evenodd" fill="#D7A7BF" d="M645.767,520.94c-4.091-0.092-8.179-0.185-12.267-0.273
		c0.838-1.528,1.677-3.057,2.516-4.581c3.868-2.021,6.889-0.377,9.646,2.4c0,0,0.179,0.067,0.181,0.067
		C645.776,519.349,645.751,520.143,645.767,520.94z"/>
	<path fill-rule="evenodd" clip-rule="evenodd" fill="#ECDBC2" d="M645.661,518.486c-3.499,0.429-6.643-0.679-9.646-2.402
		c0.034-0.826,0.066-1.654,0.1-2.479c1.307-2.825,1.256-5.73,0.452-8.688c-0.391-2.265-0.022-4.368,1.182-6.308
		c0.854-0.789,1.849-1.156,2.992-1.121c3.626,1.406,7.286,2.764,9.865,6.024C648.958,508.502,647.308,513.495,645.661,518.486z"/>
	<path fill-rule="evenodd" clip-rule="evenodd" fill="#FCEDD7" d="M638.376,505.911c4.015,4.077,2.938,6.537-2.26,7.691
		c-0.872-0.945-1.746-1.897-2.62-2.843c0.151-0.66,0.296-1.321,0.428-1.984C634.919,506.997,635.557,504.63,638.376,505.911z"/>
	<path fill-rule="evenodd" clip-rule="evenodd" fill="#FEF885" d="M633.361,134.96c-8.575-4.215-1.086-8.227,0.144-12.319
		C636.869,126.79,636.973,130.899,633.361,134.96z"/>
	<path fill-rule="evenodd" clip-rule="evenodd" fill="#FEF885" d="M633.361,134.96c0.05-4.107,0.097-8.214,0.147-12.319
		c0.849-0.022,1.703-0.042,2.556-0.064c1.542,1.648,3.325,3.119,3.781,5.566c-0.093,3.028-0.546,5.845-3.9,6.886
		C635.083,135.006,634.221,134.983,633.361,134.96z"/>
	<path fill-rule="evenodd" clip-rule="evenodd" fill="#FEF885" d="M635.945,135.029c0.858-2.489,1.717-4.976,2.573-7.465
		c1.577-1.341,3.165-1.52,4.771-0.051C640.112,129.25,643.934,138.363,635.945,135.029z"/>
	<path fill-rule="evenodd" clip-rule="evenodd" fill="#FEF885" d="M643.289,127.512c-1.591,0.017-3.182,0.034-4.771,0.051
		c-1.959-1.055-2.403-2.917-2.455-4.986C639.57,122.488,643.051,122.44,643.289,127.512z"/>
	<path fill-rule="evenodd" clip-rule="evenodd" fill="#FEF885" d="M650.322,139.98c1.554-7.424,3.108-14.845,4.664-22.268
		c1.734-0.888,3.471-1.779,5.208-2.668C656.145,123.032,659.778,134.301,650.322,139.98z"/>
	<path fill-rule="evenodd" clip-rule="evenodd" fill="#FDE6C8" d="M677.219,137.373c0.714,0.175,1.424,0.193,2.141,0.052l0.24,0.313
		c1.235,3.199-0.745,5.212-2.503,7.306c-4.74,2.851-9.164,4.022-12.156-2.454C667.932,138.047,672.384,137.224,677.219,137.373z"/>
	<path fill-rule="evenodd" clip-rule="evenodd" fill="#FEF885" d="M663.968,131.504c0.676-3.567,1.352-7.134,2.026-10.703
		c0.668,0.105,1.338,0.211,2.008,0.315c-0.467,3.474-0.934,6.947-1.401,10.419C665.726,131.525,664.847,131.514,663.968,131.504z"/>
	<path fill-rule="evenodd" clip-rule="evenodd" fill="#FDE6C8" d="M677.097,145.044c0.836-2.436,1.668-4.874,2.503-7.309
		c10.143-0.908-1.102,5.576,2.245,7.011C680.262,144.843,678.68,144.945,677.097,145.044z"/>
	<path fill-rule="evenodd" clip-rule="evenodd" fill="#D2A25C" d="M633.477,332.989c1.743-2.443,3.486-4.886,5.231-7.327
		c0.532-1.922,1.621-3.555,2.525-5.292c1.15-1.498,1.951-3.772,4.499-2.274c2.288-1.765,4.573-3.527,6.864-5.292
		c4.838,5.206-2.133,9.485-1.047,14.393c-2.733,7.085-9.486,6.451-14.915,8.363l-0.891,0.005
		C633.693,335.935,632.494,335.498,633.477,332.989z"/>
	<path fill-rule="evenodd" clip-rule="evenodd" fill="#F7CB89" d="M642.892,322.702c-0.626,2.164-2.279,2.758-4.184,2.96
		c-7.452-1.2-4.091-5.828-3.069-9.947c1.079-4.341,2.152-8.152,7.663-5.175C646.809,314.727,639.903,318.535,642.892,322.702z"/>
	<path fill-rule="evenodd" clip-rule="evenodd" fill="#D7B28B" d="M633.477,332.989c0.758,0.859,1.513,1.716,2.269,2.575
		c4.461,3.433,8.521,7.675,14.604,7.869c1.665,1.524,1.531,3.108,0.146,4.733c-7.378-3.767-17.481-3.73-19.46-15.036
		C631.848,333.085,632.663,333.036,633.477,332.989z"/>
	<path fill-rule="evenodd" clip-rule="evenodd" fill="#D38921" d="M655.41,325.475c-0.608-0.906-1.217-1.811-1.828-2.719
		c0.031-5.288-1.021-10.908,4.16-14.615c0.015-0.866,0.028-1.733,0.042-2.6c0.815,0.052,1.631,0.1,2.446,0.151
		C660.372,312.748,660.013,319.669,655.41,325.475z"/>
	<path fill-rule="evenodd" clip-rule="evenodd" fill="#A16B1D" d="M657.742,308.141c-1.39,4.872-2.775,9.743-4.162,14.616
		c-0.24,1.802-0.484,3.606-0.73,5.409c-0.994,0.906-1.875,0.797-2.639-0.327c0.796-5.012,1.591-10.023,2.384-15.036
		C653.041,309.737,654.448,307.818,657.742,308.141z"/>
	<path fill-rule="evenodd" clip-rule="evenodd" fill="#A49158" d="M614.647,335.73c-0.167-0.801-0.322-1.6-0.461-2.408
		c1.036-3.074,2.514-5.881,4.635-8.31c1.067-0.469,1.974-0.238,2.72,0.68c0.069,0.768,0.199,1.526,0.392,2.271
		c-0.039,1.741-0.083,3.48-0.124,5.221C620.11,336.117,617.314,335.725,614.647,335.73z"/>
	<path fill-rule="evenodd" clip-rule="evenodd" fill="#FEDBA1" d="M642.892,322.702c-4.604-4.228,1.037-8.08,0.41-12.162
		c2.893,1.794,2.293,4.802,2.43,7.553C644.784,319.63,643.838,321.167,642.892,322.702z"/>
	<path fill-rule="evenodd" clip-rule="evenodd" fill="#FDCC80" d="M607.056,305.129c0.717-0.747,1.435-1.491,2.153-2.238
		c5.083-0.034,10.974-4.972,14.807,2.621c1.97,6.92-4.096,11.422-4.884,17.51c-2.666,2.613-5.92,3.306-9.446,3.14
		c-2.859-0.051-5.283-1.202-7.376-3.178c0,0,0.043-0.137,0.044-0.14C603.922,316.938,605.489,311.033,607.056,305.129z"/>
	<path fill-rule="evenodd" clip-rule="evenodd" fill="#FDDEAB" d="M609.437,323.194c3.232-0.056,6.464-0.112,9.694-0.173
		c0.803,0.889,1.607,1.777,2.41,2.67l-1.09-0.097l-1.092,0.044c-2.639,3.308-6.578,4.608-9.871,6.901
		c-1.55,0.063-3.1,0.126-4.651,0.19c-0.139-0.636-0.225-1.279-0.256-1.932C602.666,325.83,607.226,325.321,609.437,323.194z"/>
	<path fill-rule="evenodd" clip-rule="evenodd" fill="#F6CC91" d="M624.015,305.511c-4.32-4.623-9.89-1.625-14.806-2.621
		c5.313-4.545,11.451-1.726,17.235-2.081C626.322,302.761,625.879,304.533,624.015,305.511z"/>
	<path fill-rule="evenodd" clip-rule="evenodd" fill="#D38A21" d="M674.793,320.443c-2.099,2.54-5.833,3.887-6.168,0.213
		c-0.453-4.936,0.881-11.051,8.424-10.141C679.874,314.701,676.05,317.259,674.793,320.443z"/>
	<path fill-rule="evenodd" clip-rule="evenodd" fill="#D38921" d="M662.719,335.824c-0.764-0.837-1.522-1.677-2.282-2.514
		c6.27-0.115,12.537-0.233,18.803-0.352c0.928,0.059,1.857,0.115,2.788,0.172c-0.088,0.764-0.137,1.529-0.15,2.3
		C675.533,337.789,669.134,337.204,662.719,335.824z"/>
	<path fill-rule="evenodd" clip-rule="evenodd" fill="#D38A21" d="M674.793,320.443c0.753-3.309,1.504-6.619,2.256-9.928
		C681.75,315.16,678.705,317.909,674.793,320.443z"/>
	<path fill-rule="evenodd" clip-rule="evenodd" fill="#D38921" d="M740.104,305.742c-0.305,7.02-1.511,13.798-4.996,19.961
		c-0.844-0.059-1.692-0.12-2.537-0.179c-5.279-3.351-11.599,0.801-16.884-2.522c0.783-2.514,1.565-5.029,2.346-7.545
		c-0.965-6.055,0.256-11.185,5.704-14.535C729.358,301.922,736.776,296.346,740.104,305.742z"/>
	<path fill-rule="evenodd" clip-rule="evenodd" fill="#D38921" d="M734.76,333.368c-8.411,4.816-17.479,1.009-26.171,2.14
		c-0.092-0.739-0.088-1.479,0.016-2.218C717.321,333.316,726.04,333.343,734.76,333.368z"/>
	<path fill-rule="evenodd" clip-rule="evenodd" fill="#C98C39" d="M740.104,305.742c-5.123-5.191-11.541-1.733-17.282-2.794
		c-0.845-1.242-0.695-2.333,0.454-3.276c5.339-1.439,11.033,1.089,16.268-1.544c0.91-0.071,1.82-0.139,2.734-0.208
		C742.138,300.702,742.72,303.701,740.104,305.742z"/>
	<path fill-rule="evenodd" clip-rule="evenodd" fill="#D38921" d="M723.006,300.717c-0.031,0.746-0.094,1.491-0.185,2.23
		c-2.922,3.621-3.827,8.076-4.787,12.511c-3.94-7.438-0.597-12.619,4.913-17.132c0.822,0.509,1.105,1.032,0.848,1.574
		C723.537,300.443,723.276,300.717,723.006,300.717z"/>
	<path fill-rule="evenodd" clip-rule="evenodd" fill="#D38921" d="M723.006,300.717c-0.046-0.799-0.065-1.596-0.059-2.393
		c5.532-0.067,11.066-0.133,16.596-0.198C734.609,302.969,728.426,299.212,723.006,300.717z"/>
	<path fill-rule="evenodd" clip-rule="evenodd" fill="#D38921" d="M715.687,323.003c5.602,1.028,11.806-2.286,16.884,2.522
		C726.959,324.575,720.754,327.91,715.687,323.003z"/>
	<path fill-rule="evenodd" clip-rule="evenodd" fill="#D38921" d="M703.395,325.433c-1.486,0.922-2.971,1.845-4.457,2.766
		c-0.781,1.085-1.508,1.1-2.178-0.114c1.92-3.208,1.115-7.656,4.351-10.261c0.722,0.611,0.988,1.25,0.798,1.921
		c-0.196,0.684-0.402,1.024-0.628,1.024c0.652,0.823,1.305,1.647,1.956,2.469C703.447,323.958,703.499,324.689,703.395,325.433z"/>
	<path fill-rule="evenodd" clip-rule="evenodd" fill="#D38921" d="M689.105,332.708c-0.943-0.761-1.889-1.522-2.834-2.284
		c1.04-6.846,1.879-13.75,5.229-19.942c0.816,0.002,1.631,0.006,2.45,0.013C692.335,317.896,690.718,325.303,689.105,332.708z"/>
	<path fill-rule="evenodd" clip-rule="evenodd" fill="#D38921" d="M701.28,320.769c-0.058-0.982-0.113-1.964-0.17-2.945
		c1.438-7.011-1.143-15.616,7.31-19.838C704.927,305.204,706.058,313.987,701.28,320.769z"/>
	<path fill-rule="evenodd" clip-rule="evenodd" fill="#D38921" d="M696.76,328.085c0.729-0.007,1.453,0.034,2.178,0.114
		c-0.218,7.645-3.365,9.501-9.601,5.241C692.727,333.02,696.475,333.14,696.76,328.085z"/>
	<path fill-rule="evenodd" clip-rule="evenodd" fill="#DDC85E" d="M768.809,290.504c0.589,5.628-1.821,8.138-7.241,7.527
		C761.713,293.167,764.137,290.67,768.809,290.504z"/>
	<path fill-rule="evenodd" clip-rule="evenodd" fill="#D88BBC" d="M638.331,486.159c-6.509-1.144-4.28-6.537-4.774-10.601
		c-0.905-7.488,2.111-15.376-2.138-22.52c-3.544-3.202-3.23-7.274-2.421-11.472c0.659-2.009,1.796-3.589,3.733-4.432
		c1.239-0.327,2.495-0.327,3.744-0.035c10.324,6.703,23.313,5.18,33.711,11.71c0.644,1.985-0.148,3.544-1.37,4.972
		c-1.673,1.742-3.971,2.102-6.063,2.91c-2.498,0.847-5.383-0.322-7.691,1.573c-4.912,3.527-6.674,7.618-2.117,12.835
		c0.792,0.795,1.346,1.746,1.658,2.846c0.171,1.805-0.4,3.315-1.667,4.55c-4.169,2.39-8.337,4.78-12.504,7.176
		C639.907,486.645,639.207,486.808,638.331,486.159z"/>
	<path fill-rule="evenodd" clip-rule="evenodd" fill="#EEDCC3" d="M691.55,488.462c2.052,0.085,3.885,0.59,4.872,2.726
		c1.483,8.599-4.17,15.941-3.965,24.309c-1.837,2.577-3.722,5.066-7.375,4.117c-4.796-4.601-2.588-10.584-2.959-16.039
		c-0.523-1.438-1.325-2.663-2.561-3.558c-4.523-2.728-9.266-1.037-13.944-0.821c-2.805-1.105-6.626-1.092-5.942-5.946
		c0.994-3.982,3.421-7.587,7.293-6.769C675.145,488.217,683.62,484.708,691.55,488.462z"/>
	<path fill-rule="evenodd" clip-rule="evenodd" fill="#DEAD9A" d="M652.936,473.446c-0.028-0.786-0.026-1.568,0.009-2.35
		c12.456-3.377,24.952-5.334,37.206,0.565c2.743,1.32,6.588,3.923,4.886,7.33c-2.021,4.051-5.529,0.276-8.367-0.48
		c-6.282-3.78-13.21-2.183-19.903-2.61C662.078,475.603,657.08,477.084,652.936,473.446z"/>
	<path fill-rule="evenodd" clip-rule="evenodd" fill="#EEDEC4" d="M638.331,486.159c0.683-0.26,1.385-0.422,2.105-0.484
		c4.642,3.27,11.538,1.911,14.917,7.797c0.849,1.078,0.985,2.243,0.41,3.503c-1.006,1.693-2.418,2.856-4.227,3.501
		c-3.735,0.713-7.319,0.507-10.521-1.928c-0.926,0.015-1.85,0.035-2.773,0.056c-0.799,0.743-1.521,0.632-2.175-0.212
		C635.804,494.109,636.115,489.943,638.331,486.159z"/>
	<path fill-rule="evenodd" clip-rule="evenodd" fill="#D98CB9" d="M652.936,473.446c11.221,1.848,23.583-4.486,33.734,5.065
		c-11.245-0.005-22.489-0.011-33.734-0.019C652.936,476.81,652.936,475.128,652.936,473.446z"/>
	<path fill-rule="evenodd" clip-rule="evenodd" fill="#FDECD3" d="M655.433,495.874c-0.047-0.803-0.073-1.602-0.08-2.402
		c4.128-8.206,9.538-12.318,18.969-8.164c5.332,2.348,12.535-4.521,17.229,3.154c-6.818,0.003-13.666,0.396-20.447-0.112
		c-5.841-0.44-8.983,2.344-11.009,7.445c-0.575,0.811-1.343,1.282-2.304,1.417C656.833,497.097,656.037,496.664,655.433,495.874z"/>
	<path fill-rule="evenodd" clip-rule="evenodd" fill="#FDDADE" d="M655.062,458.265c1.998-2.647,4.95-2.184,7.653-2.529
		c12.873-3.778,25.747-6.309,38.611,0.026c0,0-0.291,0.449-0.291,0.452C685.878,460.916,670.371,457.272,655.062,458.265z"/>
	<path fill-rule="evenodd" clip-rule="evenodd" fill="#ECDBC2" d="M691.446,515.765c-0.064-8.568,3.282-16.392,4.976-24.578
		c3.871,10.268-2.53,18.688-4.654,27.873C690.46,518.087,690.355,516.989,691.446,515.765z"/>
	<path fill-rule="evenodd" clip-rule="evenodd" fill="#FAE9D3" d="M684.135,500.92c3.824,5.72-1.714,11.497,0.099,17.228
		c-0.542,1.045-1.291,1.244-2.248,0.601c-0.699-0.913-1.399-1.826-2.101-2.737C675.905,509.343,676.514,504.064,684.135,500.92z"/>
	<path fill-rule="evenodd" clip-rule="evenodd" fill="#D3BAA5" d="M662.348,521.139c0.023-0.811,0.075-1.623,0.15-2.431
		c1.152-1.272,1.678-3.068,3.155-4.076c1.591-0.845,3.289-1.197,5.065-1.259c2.45,0.026,4.792,0.42,6.7,2.215
		c0.646,1.207,0.604,2.395-0.122,3.552c-2.823,3.049-5.954,4.388-9.777,1.91C665.797,521.081,664.071,521.109,662.348,521.139z"/>
	<path fill-rule="evenodd" clip-rule="evenodd" fill="#ECDBC2" d="M676.774,518.412c-0.042-0.878-0.081-1.753-0.12-2.634
		c-3.805-6.227-1.432-11.743,1.817-17.17c1.065-1.084,2.247-1.24,3.542-0.468c0.708,0.927,1.414,1.855,2.122,2.779
		c-3.045,4.536-5.077,9.379-4.251,15.092c-0.22,0.846-0.44,1.691-0.661,2.537C678.353,519.489,677.538,519.493,676.774,518.412z"/>
	<path fill-rule="evenodd" clip-rule="evenodd" fill="#ECDBC2" d="M681.985,518.749c0.76-0.157,1.509-0.356,2.248-0.601
		c2.949,0.984,4.884-1.341,7.215-2.383c0.104,1.097,0.211,2.192,0.319,3.294c-0.222,3.828-2.594,4.49-5.71,4.395
		C682.981,523.36,681.99,521.578,681.985,518.749z"/>
	<path fill-rule="evenodd" clip-rule="evenodd" fill="#ECDBC2" d="M676.774,518.412c0.814,0.045,1.634,0.092,2.449,0.137
		c-2.898,5.899-6.743,7.01-11.704,2.502C670.934,521.422,674.006,520.503,676.774,518.412z"/>
	<path fill-rule="evenodd" clip-rule="evenodd" fill="#B20665" d="M670.358,450.586c-11.154-4.664-24.684-2.057-34.12-12.007
		c5.722-8.117,16.983-7.59,22.702-15.701c4.574-2.285,6.217-7.266,9.275-10.944c1.715-2.149,3.299-4.495,6.282-4.882
		c3.794-0.029,3.154,3.971,4.891,5.813c-0.394,6.404-4.74,11.067-6.789,16.722c-0.981,2.698-3.883,5.833,0.226,8.532
		c2.435,2.238,4.053,0.307,5.749-1.228c2.843-2.901,5.057-6.306,7.335-9.668c2.102-4.434,3.227-9.543,7.879-12.197
		c2.464-0.449,4.228,0.639,5.527,2.729c1.312,2.482-0.26,5.643,1.721,7.978c-0.003,5.841-0.005,11.68-0.009,17.52
		c-5.359,6.068-12.588,8.034-19.917,9.797C677.349,453.064,673.305,454.39,670.358,450.586z"/>
	<path fill-rule="evenodd" clip-rule="evenodd" fill="#E1AD8F" d="M694.389,415.898c-2.503,4.234-5.004,8.473-7.507,12.709
		c-1.504-0.223-1.675-1.642-2.253-2.699c6.198-15.647,11.282-31.347,1.974-47.688c1.669-1.402,3.361-1.547,5.081-0.099
		c9.264,7.104,5.276,17.844,6.875,27.051C698.918,409.482,697.57,413.076,694.389,415.898z"/>
	<path fill-rule="evenodd" clip-rule="evenodd" fill="#D8A06B" d="M650.494,348.167c-0.047-1.579-0.094-3.158-0.145-4.737
		c8.944,6.424,19.599,10.387,26.442,19.832c-1.565,1.401-3.115,1.334-4.65-0.051C664.925,358.197,657.709,353.182,650.494,348.167z"
		/>
	<path fill-rule="evenodd" clip-rule="evenodd" fill="#DA7FB9" d="M681.401,450.621c6.98-1.21,12.34-7.065,19.626-7.369
		c0.032,3.357,0.066,6.719,0.096,10.08c-4.226,2.526-8.806,0.753-13.209,1.175C685.468,453.707,682.846,453.229,681.401,450.621z"/>
	<path fill-rule="evenodd" clip-rule="evenodd" fill="#D0A1A5" d="M686.66,453.266c4.822,0.022,9.642,0.042,14.462,0.065
		c0.248,0.792,0.316,1.605,0.203,2.431c-12.869-0.01-25.742-0.016-38.611-0.023c1.018-1.98,2.826-2.283,4.722-2.393
		C673.835,451.395,680.246,451.512,686.66,453.266z"/>
	<path fill-rule="evenodd" clip-rule="evenodd" fill="#DEAC89" d="M672.142,363.211c1.549,0.016,3.104,0.031,4.652,0.049
		c2.997,7.078,11.668,8.022,14.89,14.864c-1.691,0.031-3.383,0.063-5.078,0.095C681.227,373.796,676.055,369.153,672.142,363.211z"
		/>
	<path fill-rule="evenodd" clip-rule="evenodd" fill="#915801" d="M650.212,327.84c0.881,0.107,1.763,0.217,2.642,0.327
		c-3.198,7.703-9.594,7.825-16.224,7.392C640.428,331.602,647.044,332.995,650.212,327.84z"/>
	<path fill-rule="evenodd" clip-rule="evenodd" fill="#D38921" d="M662.719,335.824c6.386-0.13,12.773-0.262,19.159-0.394
		C675.571,339.67,669.172,339.187,662.719,335.824z"/>
	<path fill-rule="evenodd" clip-rule="evenodd" fill="#AE125F" d="M694.389,415.898c-0.038-4.172,1.688-7.603,4.169-10.723
		c0.666,1.123,1.328,2.249,1.992,3.373c-1.529,3.065,0.641,6.847-1.754,9.74C697.326,417.491,695.857,416.695,694.389,415.898z"/>
	<path fill-rule="evenodd" clip-rule="evenodd" fill="#BC146A" d="M698.796,418.289c0.327-3.297-0.982-6.915,1.759-9.74
		c0.159,5.729,0.32,11.456,0.479,17.183C698.339,423.884,698.883,420.983,698.796,418.289z"/>
	<path fill-rule="evenodd" clip-rule="evenodd" fill="#F6CCF3" d="M587.073,438.665c-10.317-2.641-9.807-12.186-11.874-20.089
		c0.216-0.857,0.434-1.72,0.653-2.577c1.568,0.058,3.137,0.115,4.704,0.176c2.883,6.594,4.985,13.785,12.118,17.136
		c1.049,1.115,2.683,1.626,3.186,3.311c-0.069,0.538-0.14,1.071-0.211,1.608c-0.669,0.865-1.514,1.464-2.528,1.806
		C590.932,440.412,589.062,439.263,587.073,438.665z"/>
	<path fill-rule="evenodd" clip-rule="evenodd" fill="#B10566" d="M614.149,413.667c-6.521-11.37-4.515-23.205-1.77-35.079
		c4.697,4.666,9.06,9.781,14.176,13.884c6.53,5.239,5.805,8.622-1.126,12.434C621.312,407.169,616.846,409.286,614.149,413.667z"/>
	<path fill-rule="evenodd" clip-rule="evenodd" fill="#DDAC98" d="M614.531,422.462c17.856-4.347,29.492-17.955,41.831-30.911
		c-0.076,7.944-0.939,15.033-7.979,19.237c-3.163,3.247-6.475,6.332-9.542,9.68c-1.001,1.01-2.005,2.021-3.004,3.034
		c-3.888,0.788-7.214,3.064-10.867,4.441c-4.617,1.74-9.222,2.761-10.739-4.252C614.213,423.248,614.313,422.84,614.531,422.462z"/>
	<path fill-rule="evenodd" clip-rule="evenodd" fill="#8A195A" d="M614.231,423.69c3.846,4.432,8.32,3.912,12.222,0.701
		c3.249-2.669,6.054-2.877,9.385-0.89c-1.441,3.253-2.88,6.509-4.318,9.761c0.661,1.418,0.393,2.607-0.805,3.575
		c-5.709,3.184-11.499,2.827-17.338,0.435c-0.472-0.485-0.942-0.982-1.411-1.476C612.572,431.731,609.893,427.002,614.231,423.69z"
		/>
	<path fill-rule="evenodd" clip-rule="evenodd" fill="#E4A79D" d="M631.058,435.634c-0.038-0.827,0.118-1.619,0.461-2.371
		c10.393-0.325,18.513-5.928,26.331-12.234c1.117,0.724,2.665,0.925,2.993,2.624c-6.013,8.865-16.22,10.271-24.605,14.924
		c-0.983-0.117-1.965-0.233-2.948-0.354C632.548,437.36,630.992,437.252,631.058,435.634z"/>
	<path fill-rule="evenodd" clip-rule="evenodd" fill="#E6A69F" d="M674.218,407.784c-1.447,1.821-2.895,3.643-4.345,5.463
		c-2.646,1.459-3.692-0.368-4.628-2.426c1.617-5.369,2.708-10.993,4.974-16.049c3.067-6.844,3.766-1.874,4.519,1.377
		C677.084,400.148,678.314,404.094,674.218,407.784z"/>
	<path fill-rule="evenodd" clip-rule="evenodd" fill="#8F0D42" d="M674.218,407.784c0.175-3.878,0.348-7.758,0.52-11.635
		c8.97,3.349,6.193,10.222,4.649,16.721C677.666,411.172,675.943,409.476,674.218,407.784z"/>
	<path fill-rule="evenodd" clip-rule="evenodd" fill="#DBAD93" d="M665.245,410.821c1.544,0.808,3.087,1.618,4.628,2.428
		c-2.453,3.989-3.646,9.16-9.031,10.403c-0.998-0.877-1.998-1.753-2.995-2.627C661.924,418.884,662.748,414.197,665.245,410.821z"/>
	<path fill-rule="evenodd" clip-rule="evenodd" fill="#93154B" d="M638.841,420.467c0.107-6.496,4.85-8.058,9.542-9.68
		C648.326,417.34,644.622,420.008,638.841,420.467z"/>
	<path fill-rule="evenodd" clip-rule="evenodd" fill="#D9AF96" d="M684.629,425.908c0.751,0.901,1.504,1.798,2.253,2.699
		c-2.582,3.155-2.997,8.084-7.41,9.737c-2.263,0.675-3.071-0.227-2.581-2.552C679.473,432.496,682.052,429.203,684.629,425.908z"/>
	<path fill-rule="evenodd" clip-rule="evenodd" fill="#F4C8B9" d="M676.892,435.793c0.86,0.848,1.72,1.699,2.581,2.552
		c-1.065,2.105-2.152,4.601-4.911,3.74c-0.883-0.277-1.175-2.586-1.739-3.967C674.181,437.34,675.538,436.566,676.892,435.793z"/>
	<path fill-rule="evenodd" clip-rule="evenodd" fill="#E0B0E6" d="M595.056,435.839c-0.795-0.843-1.588-1.685-2.382-2.528
		c5.598,0.982,11.788-2.288,16.852,2.53C604.702,440.19,599.879,439.58,595.056,435.839z"/>
	<path fill-rule="evenodd" clip-rule="evenodd" fill="#F8C4FD" d="M595.056,435.839c4.822,0,9.646,0,14.469,0
		c0.812-0.013,1.625-0.028,2.44-0.042l-0.002,0.168c-4.725,7.949-10.779,5.381-16.897,2.301
		C595.054,437.455,595.05,436.645,595.056,435.839z"/>
	<path fill-rule="evenodd" clip-rule="evenodd" fill="#F5E5B0" d="M609.437,323.194c-1.618,2.532-3.236,5.068-4.856,7.603
		c-0.769-0.059-1.525-0.186-2.271-0.385c0-2.477,0-4.952,0-7.426C604.685,323.053,607.061,323.123,609.437,323.194z"/>
	<path fill-rule="evenodd" clip-rule="evenodd" fill="#FBECD7" d="M650.233,518.502c0.939-5.021,1.883-10.038,2.825-15.059
		c1.593-1.27,3.181-1.267,4.763,0.03C654.128,507.848,657.472,516.057,650.233,518.502z"/>
	<path fill-rule="evenodd" clip-rule="evenodd" fill="#ECCBB7" d="M657.82,503.473c-1.588-0.012-3.177-0.02-4.763-0.03l-0.355,0.266
		c-1.214-1.913-1.205-3.777,0.195-5.591c0.844-0.749,1.686-1.495,2.535-2.242c0.822,0.104,1.645,0.211,2.469,0.316
		c1.477,1.698,3.747,2.56,4.695,4.816C661.56,502.99,659.788,503.433,657.82,503.473z"/>
	<path fill-rule="evenodd" clip-rule="evenodd" fill="#ECDBC2" d="M665.156,515.879c-0.886,0.941-1.773,1.884-2.658,2.83
		c-0.636-6.151,1.046-11.919,2.68-17.696c0.51-0.279,1.019-0.555,1.528-0.831c1.07,0.531,1.819,1.388,2.291,2.516
		C670.029,507.816,668.336,512.081,665.156,515.879z"/>
	<path fill-rule="evenodd" clip-rule="evenodd" fill="#D2B9A3" d="M667.237,501.173c-0.686-0.064-1.374-0.118-2.059-0.16
		c-0.862,0-1.719,0-2.582-0.004c-2.97-0.131-4.756-1.504-4.697-4.818c0.729-0.153,1.46-0.285,2.194-0.396
		c2.447,0.903,4.892,1.806,7.337,2.711c0.199,0.464,0.398,0.925,0.595,1.389C667.761,500.321,667.498,500.747,667.237,501.173z"/>
	<path fill-rule="evenodd" clip-rule="evenodd" fill="#DABAA5" d="M652.898,498.118c-0.066,1.863-0.128,3.725-0.193,5.588
		c-0.698-0.121-1.396-0.186-2.101-0.194c-4.07,0.166-7.91-0.154-9.593-4.97C644.976,498.401,648.935,498.26,652.898,498.118z"/>
	<path fill-rule="evenodd" clip-rule="evenodd" fill="#D79AB4" d="M636.066,498.391c0.722,0.123,1.446,0.191,2.175,0.209
		c0.042,2.438,0.09,4.875,0.135,7.313c-1.484,0.952-2.968,1.909-4.452,2.862c-0.155-3.332-0.312-6.66-0.469-9.991
		C634.325,498.654,635.196,498.522,636.066,498.391z"/>
	<path fill-rule="evenodd" clip-rule="evenodd" fill="#EECCE9" d="M630.896,440.789c-5.244-2.871-10.288-4.434-14.091,2.283
		c-7.244-0.11-14.487-0.225-21.732-0.339c-1.484-1.437-1.446-2.893-0.05-4.368c0,0,0.044-0.1,0.044-0.1
		c5.628-0.798,11.739,2.226,16.896-2.305c6.366-0.109,12.732-0.216,19.096-0.324c0.748,0.862,1.495,1.724,2.233,2.589
		C632.492,439.078,631.695,439.93,630.896,440.789z"/>
	<path fill-rule="evenodd" clip-rule="evenodd" fill="#E780C1" d="M686.66,453.266c-6.409,0.027-12.817,0.052-19.226,0.08
		c0.974-0.919,1.946-1.837,2.92-2.757c3.687,0.012,7.371,0.021,11.05,0.034C683.411,450.956,685.517,451.078,686.66,453.266z"/>
	<path fill-rule="evenodd" clip-rule="evenodd" fill="#D3B8A0" d="M682.013,498.14c-0.886,0.116-1.774,0.23-2.662,0.344
		c-3.989,3.401-7.974,3.287-11.956-0.022l0.037,0.044C672.126,491.253,677.116,496.623,682.013,498.14z"/>
	<path fill-rule="evenodd" clip-rule="evenodd" fill="#EEDAC2" d="M667.394,498.462c3.987,0.01,7.974,0.016,11.959,0.022
		c-0.896,5.769-1.794,11.533-2.696,17.296c-2.313,0.02-4.625,0.04-6.934,0.057c-4.648-4.386,1.702-10.285-1.89-14.817
		c0,0-0.595,0.151-0.595,0.153C667.291,500.269,667.343,499.367,667.394,498.462z"/>
	<path fill-rule="evenodd" clip-rule="evenodd" fill="#FDEDD8" d="M667.833,501.019c6.652,4.111,0.19,10.025,1.89,14.819
		c-1.524,0.012-3.044,0.025-4.567,0.04C666.049,510.923,666.942,505.971,667.833,501.019z"/>
	<path fill-rule="evenodd" clip-rule="evenodd" fill="#EDCFDA" d="M595.022,438.365c0.016,1.458,0.034,2.914,0.05,4.37
		c-3.674,0.782-6.018-1.255-7.996-4.07C589.723,438.564,592.372,438.467,595.022,438.365z"/>
	<path fill-rule="evenodd" clip-rule="evenodd" fill="#FECB7F" d="M595.237,322.524l-2.61-2.033l-4.625-2.919l-3.962-6.419
		c0,0,12.026-18.27,12.852-18.726c0.827-0.456,15.124-7.613,15.94-7.613c0.816,0,22.65,2.625,22.65,2.625l22.261,1.542l12.056,3.447
		l2.497,3.098l-14.51,10.017l-0.042,2.6l-1.479,7.317l-2.748,8.838l-0.661,3.87l-5.936,6.182l-3.518,2.494l-6.77,0.452l-4.015-2.215
		l-1.581-1.949l-4.59,1.218l-8.385,2.116l-8.623-0.992l-11.687,0.207l-4.15-2.721l-3.822-6.615L595.237,322.524z"/>
	<path fill-rule="evenodd" clip-rule="evenodd" fill="#B10266" d="M575.855,415.999c-6.547-4.998-15.819-1.815-22.002-7.905
		c-1.261-1.236-3.44-1.961-2.336-4.515c1.43-0.534,2.344-1.419,1.987-3.165c0.227-0.744,0.487-1.47,0.782-2.188
		c6.293-2.482,12.843-0.616,19.247-1.229c7.902-1.354,15.802-4.247,23.711-0.017c1.966,1.594,3.108,3.775,3.894,6.154
		c4.303,13.032-0.659,19.295-13.753,17.359c-1.978-0.294-3.852-1.121-5.841-1.401C579.333,418.69,577.508,417.515,575.855,415.999z"
		/>
</g>
</svg>
